<?xml version="1.0" encoding="utf-8"?>
<!-- Generator: Adobe Illustrator 27.4.1, SVG Export Plug-In . SVG Version: 6.00 Build 0)  -->
<svg version="1.1" id="Layer_1" xmlns="http://www.w3.org/2000/svg" xmlns:xlink="http://www.w3.org/1999/xlink" x="0px" y="0px"
	 viewBox="0 0 40 40" style="enable-background:new 0 0 40 40;" xml:space="preserve">
<style type="text/css">
	.st0{fill:#00005B;}
	.st1{fill:#9999FF;}
</style>
<path class="st0" d="M36.2,40H3.8C1.7,40,0,38.3,0,36.2V3.8C0,1.7,1.7,0,3.8,0h32.4C38.3,0,40,1.7,40,3.8v32.4
	C40,38.3,38.3,40,36.2,40z"/>
<g id="vlpa">
	<g id="vlpe">
		<g id="vlpf">
			<path class="st1" d="M16.1,23.8H9.9l-1.3,3.9c0,0.1-0.2,0.2-0.3,0.2H5.2C5,28,4.9,27.9,5,27.7l5.4-15.4c0.1-0.2,0.1-0.3,0.2-0.5
				c0.1-0.3,0.1-0.7,0.1-1.1c0-0.1,0.1-0.2,0.1-0.2h0.1h4.3c0.1,0,0.2,0.1,0.2,0.1l6.1,17c0.1,0.2,0,0.3-0.2,0.3h-3.5
				c-0.1,0-0.2-0.1-0.3-0.2L16.1,23.8L16.1,23.8z M10.8,20.5h4.2c-0.1-0.4-0.2-0.8-0.4-1.2c-0.2-0.5-0.3-0.9-0.4-1.4
				c-0.2-0.5-0.3-1-0.5-1.5c-0.2-0.5-0.3-1-0.4-1.5c-0.1-0.5-0.2-0.9-0.4-1.3h0c-0.2,0.7-0.3,1.4-0.6,2.2c-0.2,0.8-0.5,1.6-0.8,2.5
				C11.4,19,11.1,19.8,10.8,20.5z"/>
			<path class="st1" d="M31.2,22.3h-5.3c0.1,0.5,0.2,1,0.5,1.5c0.3,0.4,0.7,0.8,1.2,1c0.7,0.3,1.4,0.4,2.1,0.4
				c0.6,0,1.2-0.1,1.7-0.2c0.5-0.1,1-0.2,1.5-0.4c0.1-0.1,0.1,0,0.1,0.1v2.6c0,0.1,0,0.1,0,0.2c0,0.1-0.1,0.1-0.1,0.1
				c-0.5,0.2-1.1,0.4-1.7,0.5c-0.8,0.1-1.6,0.2-2.4,0.2c-1.3,0-2.3-0.2-3.2-0.6c-0.8-0.4-1.5-0.9-2.1-1.6c-0.5-0.6-0.9-1.4-1.1-2.2
				c-0.2-0.8-0.4-1.6-0.4-2.4c0-0.9,0.1-1.8,0.4-2.7c0.3-0.8,0.7-1.6,1.2-2.3c0.6-0.7,1.2-1.2,2-1.6c0.8-0.4,1.7-0.5,2.8-0.5
				c0.9,0,1.8,0.2,2.6,0.5c0.7,0.3,1.3,0.8,1.7,1.3c0.4,0.6,0.8,1.2,1,1.9c0.2,0.7,0.3,1.3,0.3,2c0,0.4,0,0.8,0,1.1
				c0,0.3,0,0.6-0.1,0.7c0,0.1-0.1,0.2-0.2,0.2c-0.1,0-0.3,0-0.6,0c-0.3,0-0.6,0-1,0C32,22.4,31.6,22.3,31.2,22.3L31.2,22.3z
				 M25.9,19.9h3.5c0.4,0,0.8,0,0.9,0c0.1,0,0.3,0,0.4-0.1v-0.2c0-0.2,0-0.4-0.1-0.6c-0.3-0.9-1.2-1.6-2.2-1.5
				c-0.9-0.1-1.8,0.4-2.2,1.3C26.1,19.1,25.9,19.5,25.9,19.9z"/>
		</g>
	</g>
</g>
</svg>
