<?xml version="1.0" encoding="UTF-8"?>
<svg id="Layer_1" data-name="Layer 1" xmlns="http://www.w3.org/2000/svg" version="1.1" viewBox="0 0 40 40">
  <defs>
    <style>
      .cls-1 {
        fill: #000;
      }

      .cls-1, .cls-2 {
        stroke-width: 0px;
      }

      .cls-2 {
        fill: #fff;
      }
    </style>
  </defs>
  <path class="cls-1" d="M36.2,40H3.8c-2.1,0-3.8-1.7-3.8-3.8V3.8C0,1.7,1.7,0,3.8,0h32.4c2.1,0,3.8,1.7,3.8,3.8v32.4c0,2.1-1.7,3.8-3.8,3.8Z"/>
  <g id="vlpa">
    <g id="vlpe">
      <g id="vlpf">
        <path class="cls-2" d="M16.1,23.8h-6.2l-1.3,3.9c0,.1-.2.2-.3.2h-3.1c-.2.1-.3,0-.2-.2l5.4-15.4c.1-.2.1-.3.2-.5.1-.3.1-.7.1-1.1s.1-.2.1-.2h4.4c.1,0,.2.1.2.1l6.1,17c.1.2,0,.3-.2.3h-3.5c-.1,0-.2-.1-.3-.2l-1.4-3.9h0ZM10.8,20.5h4.2c-.1-.4-.2-.8-.4-1.2-.2-.5-.3-.9-.4-1.4-.2-.5-.3-1-.5-1.5s-.3-1-.4-1.5c-.1-.5-.2-.9-.4-1.3h0c-.2.7-.3,1.4-.6,2.2-.2.8-.5,1.6-.8,2.5-.1.7-.4,1.5-.7,2.2Z"/>
        <path class="cls-2" d="M31.2,22.3h-5.3c.1.5.2,1,.5,1.5.3.4.7.8,1.2,1,.7.3,1.4.4,2.1.4s1.2-.1,1.7-.2,1-.2,1.5-.4c0-.1,0,0,0,.1v2.8c0,.1,0,.1,0,.1-.5.2-1.1.4-1.7.5-.8.1-1.6.2-2.4.2-1.3,0-2.3-.2-3.2-.6-.8-.4-1.5-.9-2.1-1.6-.5-.6-.9-1.4-1.1-2.2-.2-.8-.4-1.6-.4-2.4s.1-1.8.4-2.7c.3-.8.7-1.6,1.2-2.3.6-.7,1.2-1.2,2-1.6.8-.4,1.7-.5,2.8-.5s1.8.2,2.6.5c.7.3,1.3.8,1.7,1.3.4.6.8,1.2,1,1.9.2.7.3,1.3.3,2v1.1c0,.3,0,.6,0,.7,0,.1,0,.2-.2.2h-1.6c-.1.3-.5.2-.9.2h0ZM25.9,19.9h4.4c.1,0,.3,0,.4-.1v-.2c0-.2,0-.4-.1-.6-.3-.9-1.2-1.6-2.2-1.5-.9-.1-1.8.4-2.2,1.3,0,.3-.3.7-.3,1.1Z"/>
      </g>
    </g>
  </g>
</svg>