<?xml version="1.0" encoding="UTF-8"?>
<svg id="Layer_1" data-name="Layer 1" xmlns="http://www.w3.org/2000/svg" version="1.1" viewBox="0 0 40 40">
  <defs>
    <style>
      .cls-1 {
        stroke: #fff;
        stroke-width: 0px;
      }

      .cls-1, .cls-2 {
        fill: #000;
      }

      .cls-2, .cls-3 {
        stroke-width: 0px;
      }

      .cls-3 {
        fill: #fff;
      }
    </style>
  </defs>
  <path class="cls-2" d="M36.2,40H3.8c-2.1,0-3.8-1.7-3.8-3.8V3.8C0,1.7,1.7,0,3.8,0h32.4c2.1,0,3.8,1.7,3.8,3.8v32.4c0,2.1-1.7,3.8-3.8,3.8Z"/>
  <g>
    <path class="cls-3" d="M5.4,9c0-2,1.5-3.8,3.7-3.8h21.8c2.1,0,3.6,1.8,3.6,3.8,0,1.9,0,4.4.7,6.5.6,2.1,1.7,3.4,3.5,3.5v1.9c-1.8.2-2.8,1.5-3.5,3.5-.6,2-.7,4.6-.7,6.5,0,2-1.5,3.9-3.6,3.9H9.1c-2.1,0-3.7-1.9-3.6-3.9,0-1.9,0-4.4-.7-6.5-.6-2.1-1.7-3.4-3.5-3.5v-1.9c1.8-.2,2.8-1.5,3.5-3.5.6-2,.7-4.5.6-6.5Z"/>
    <path class="cls-1" d="M20.8,27.9c3.4,0,5.5-1.7,5.5-4.5s-1.5-3.6-3.7-3.9h0c1.6-.4,2.9-1.9,2.9-3.5,0-2.4-1.9-3.9-4.8-3.9h-6.5v15.8s6.6,0,6.6,0ZM16.8,14.1h3.3c1.8,0,2.8.8,2.8,2.3s-1.2,2.4-3.4,2.4h-2.8c.1,0,.1-4.7.1-4.7ZM16.8,25.9v-5.2h3.3c2.4,0,3.6.9,3.6,2.6s-1.2,2.6-3.5,2.6c0,0-3.4,0-3.4,0Z"/>
  </g>
</svg>