<?xml version="1.0" encoding="utf-8"?>
<!-- Generator: Adobe Illustrator 27.4.1, SVG Export Plug-In . SVG Version: 6.00 Build 0)  -->
<svg version="1.1" id="Layer_1" xmlns="http://www.w3.org/2000/svg" xmlns:xlink="http://www.w3.org/1999/xlink" x="0px" y="0px"
	 viewBox="0 0 40 40" style="enable-background:new 0 0 40 40;" xml:space="preserve">
<style type="text/css">
	.st0{fill:#2965F1;}
	.st1{fill:#EBEBEB;}
	.st2{fill:#FFFFFF;}
</style>
<path class="st0" d="M36.2,40H3.8C1.7,40,0,38.3,0,36.2V3.8C0,1.7,1.7,0,3.8,0h32.4C38.3,0,40,1.7,40,3.8v32.4
	C40,38.3,38.3,40,36.2,40z"/>
<g>
	<g>
		<path class="st1" d="M4.9,15.3l0.6,6.4H20v-6.4H4.9z"/>
		<path class="st1" d="M20,2H3.6l0.7,6.4H20V2z"/>
		<path class="st1" d="M20,39v-6.8l-7.2-2L12.3,25H8.8H5.9l0.7,10.1L20,39z"/>
	</g>
	<path class="st2" d="M28.1,21.7l-0.7,8.5l-7.4,2V39l13.4-3.9V34l1.7-17.1l0.2-1.7L36.4,2H20v6.4h9.2l-0.6,6.8H20v6.4L28.1,21.7z"/>
</g>
</svg>
