<?xml version="1.0" encoding="utf-8"?>
<!-- Generator: Adobe Illustrator 27.4.1, SVG Export Plug-In . SVG Version: 6.00 Build 0)  -->
<svg version="1.1" id="Layer_1" xmlns="http://www.w3.org/2000/svg" xmlns:xlink="http://www.w3.org/1999/xlink" x="0px" y="0px"
	 viewBox="0 0 40 40" style="enable-background:new 0 0 40 40;" xml:space="preserve">
<style type="text/css">
	.st0{fill:#2965F1;}
	.st1{fill:#EBEBEB;}
	.st2{fill:#FFFFFF;}
</style>
<path class="st0" d="M36.2,40H3.8C1.7,40,0,38.3,0,36.2V3.8C0,1.7,1.7,0,3.8,0h32.4C38.3,0,40,1.7,40,3.8v32.4
	C40,38.3,38.3,40,36.2,40z"/>
<g>
	<g>
		<path class="st1" d="M6.2,15.7l0.5,5.9H20v-5.9C20,15.7,6.2,15.7,6.2,15.7z"/>
		<path class="st1" d="M20,3.6H5l0.6,5.9H20V3.6z"/>
		<path class="st1" d="M20,37.4v-6.2l-6.6-1.8L13,24.6H9.8H7.1l0.6,9.2L20,37.4z"/>
	</g>
	<path class="st2" d="M27.4,21.6l-0.6,7.8L20,31.2v6.2l12.3-3.6v-1l1.6-15.6l0.2-1.6l1-12.1H20v5.9h8.4l-0.5,6.2H20v5.9L27.4,21.6z"
		/>
</g>
</svg>
