<?xml version="1.0" encoding="utf-8"?>
<!-- Generator: Adobe Illustrator 25.4.1, SVG Export Plug-In . SVG Version: 6.00 Build 0)  -->
<svg version="1.1"
	 id="svg3476" inkscape:version="0.91 r13725" sodipodi:docname="CSS3.svg" xmlns:cc="http://creativecommons.org/ns#" xmlns:dc="http://purl.org/dc/elements/1.1/" xmlns:inkscape="http://www.inkscape.org/namespaces/inkscape" xmlns:rdf="http://www.w3.org/1999/02/22-rdf-syntax-ns#" xmlns:sodipodi="http://sodipodi.sourceforge.net/DTD/sodipodi-0.dtd" xmlns:svg="http://www.w3.org/2000/svg"
	 xmlns="http://www.w3.org/2000/svg" xmlns:xlink="http://www.w3.org/1999/xlink" x="0px" y="0px" viewBox="0 0 40 40"
	 style="enable-background:new 0 0 40 40;" xml:space="preserve">
<style type="text/css">
	.st0{fill:#264DE4;}
	.st1{fill:#2965F1;}
	.st2{fill:#EBEBEB;}
	.st3{fill:#FFFFFF;}
</style>
<sodipodi:namedview  bordercolor="#666666" borderopacity="1.0" fit-margin-bottom="0" fit-margin-left="0" fit-margin-right="0" fit-margin-top="0" id="base" inkscape:current-layer="layer1" inkscape:cx="181.367" inkscape:cy="256" inkscape:document-units="px" inkscape:pageopacity="0.0" inkscape:pageshadow="2" inkscape:window-height="704" inkscape:window-maximized="1" inkscape:window-width="1366" inkscape:window-x="0" inkscape:window-y="27" inkscape:zoom="0.35" pagecolor="#ffffff" showgrid="false">
	</sodipodi:namedview>
<g id="layer1" transform="translate(-193.633,-276.3622)" inkscape:groupmode="layer" inkscape:label="Calque 1">
	<g id="g3013" transform="translate(119,276.3622)">
		<polygon id="polygon2989" class="st0" points="108.8,7.9 106.2,36.8 94.6,40 83,36.8 80.5,7.9 		"/>
		<polygon id="polygon2991" class="st1" points="104,34.9 106.2,10.2 94.6,10.2 94.6,37.5 		"/>
		<polygon id="polygon2993" class="st2" points="86.4,21 86.7,24.5 94.6,24.5 94.6,21 		"/>
		<polygon id="polygon2995" class="st2" points="94.6,13.8 94.6,13.8 85.7,13.8 86.1,17.3 94.6,17.3 		"/>
		<polygon id="polygon2997" class="st2" points="94.6,33.9 94.6,30.2 94.6,30.2 90.7,29.1 90.4,26.3 88.5,26.3 86.9,26.3 87.3,31.8 
			94.6,33.9 		"/>
		<path id="path2999" inkscape:connector-curvature="0" d="M87.1,0h4.3v1.8h-2.5v1.8h2.5v1.8h-4.3V0z"/>
		<path id="path3001" inkscape:connector-curvature="0" d="M92.3,0h4.3v1.6h-2.5v0.3h2.5v3.6h-4.3V3.8h2.5V3.5h-2.5V0z"/>
		<path id="path3003" inkscape:connector-curvature="0" d="M97.4,0h4.3v1.6h-2.5v0.3h2.5v3.6h-4.3V3.8h2.5V3.5h-2.5V0z"/>
		<polygon id="polygon3005" class="st3" points="99,24.5 98.6,29.1 94.6,30.2 94.6,33.9 101.9,31.8 101.9,31.2 102.8,21.9 102.9,21 
			103.5,13.8 94.6,13.8 94.6,17.3 99.6,17.3 99.3,21 94.6,21 94.6,24.5 		"/>
	</g>
</g>
</svg>
