<?xml version="1.0" encoding="utf-8"?>
<!-- Generator: Adobe Illustrator 27.4.1, SVG Export Plug-In . SVG Version: 6.00 Build 0)  -->
<svg version="1.1" id="Layer_1" xmlns="http://www.w3.org/2000/svg" xmlns:xlink="http://www.w3.org/1999/xlink" x="0px" y="0px"
	 viewBox="0 0 40 40" style="enable-background:new 0 0 40 40;" xml:space="preserve">
<style type="text/css">
	.st0{fill:#2965F1;}
	.st1{fill:#EBEBEB;}
	.st2{fill:#FFFFFF;}
</style>
<path class="st0" d="M36.2,40H3.8C1.7,40,0,38.3,0,36.2V3.8C0,1.7,1.7,0,3.8,0h32.4C38.3,0,40,1.7,40,3.8v32.4
	C40,38.3,38.3,40,36.2,40z"/>
<g>
	<g>
		<path class="st1" d="M7.2,16l0.5,5.5H20V16C20,16,7.2,16,7.2,16z"/>
		<path class="st1" d="M20,4.8H6l0.6,5.5H20V4.8z"/>
		<path class="st1" d="M20,36.2v-5.8l-6.1-1.7l-0.4-4.5h-3H8l0.6,8.6L20,36.2z"/>
	</g>
	<path class="st2" d="M26.9,21.5l-0.6,7.3L20,30.5v5.8l11.4-3.3v-0.9l1.5-14.5l0.2-1.5L34,4.7H20v5.5h7.8l-0.5,5.8H20v5.5L26.9,21.5
		z"/>
</g>
</svg>
