<svg enable-background="new 0 0 40 40" viewBox="0 0 40 40" xmlns="http://www.w3.org/2000/svg"><g transform="translate(-74.633)"><path d="m108.8 7.9-2.6 28.9-11.6 3.2-11.6-3.2-2.5-28.9z" fill="#264de4"/><path d="m104 34.9 2.2-24.7h-11.6v27.3z" fill="#2965f1"/><g fill="#ebebeb"><path d="m86.4 21 .3 3.5h7.9v-3.5z"/><path d="m94.6 13.8h-8.9l.4 3.5h8.5z"/><path d="m94.6 33.9v-3.7l-3.9-1.1-.3-2.8h-1.9-1.6l.4 5.5z"/></g><path d="m87.1 0h4.3v1.8h-2.5v1.8h2.5v1.8h-4.3z"/><path d="m92.3 0h4.3v1.6h-2.5v.3h2.5v3.6h-4.3v-1.7h2.5v-.3h-2.5z"/><path d="m97.4 0h4.3v1.6h-2.5v.3h2.5v3.6h-4.3v-1.7h2.5v-.3h-2.5z"/><path d="m99 24.5-.4 4.6-4 1.1v3.7l7.3-2.1v-.6l.9-9.3.1-.9.6-7.2h-8.9v3.5h5l-.3 3.7h-4.7v3.5z" fill="#fff"/></g></svg>