<?xml version="1.0" encoding="UTF-8"?>
<svg id="Layer_1" data-name="Layer 1" xmlns="http://www.w3.org/2000/svg" version="1.1" viewBox="0 0 40 40">
  <defs>
    <style>
      .cls-1 {
        fill: #000;
      }

      .cls-1, .cls-2 {
        stroke-width: 0px;
      }

      .cls-2 {
        fill: #fff;
      }
    </style>
  </defs>
  <path class="cls-1" d="M36.2,40H3.8c-2.1,0-3.8-1.7-3.8-3.8V3.8C0,1.7,1.7,0,3.8,0h32.4c2.1,0,3.8,1.7,3.8,3.8v32.4c0,2.1-1.7,3.8-3.8,3.8Z"/>
  <g>
    <path class="cls-2" d="M17.6,2.2h5.8v26.7c-3,.6-5.2.8-7.6.8-7.1,0-10.8-3.2-10.8-9.3s3.9-9.7,10-9.7,1.7.1,2.5.3V2.2h.1ZM17.8,15.8c-.7-.2-1.2-.3-2-.3-2.9,0-4.7,1.8-4.7,4.9s1.6,4.8,4.6,4.8,1.2,0,2-.1v-9.3h.1Z"/>
    <path class="cls-2" d="M33,11.4v13.4c0,4.6-.3,6.8-1.4,8.7-.9,1.8-2.2,3-4.8,4.3l-5.4-2.5c2.6-1.2,3.8-2.3,4.6-3.9.8-1.6,1.1-3.6,1.1-8.6v-11.4h5.9ZM26.6,2.2h5.8v5.9h-5.8s0-5.9,0-5.9Z"/>
  </g>
</svg>