<?xml version="1.0" encoding="utf-8"?>
<!-- Generator: Adobe Illustrator 27.6.1, SVG Export Plug-In . SVG Version: 6.00 Build 0)  -->
<svg version="1.1" id="Layer_1" xmlns="http://www.w3.org/2000/svg" xmlns:xlink="http://www.w3.org/1999/xlink" x="0px" y="0px"
	 viewBox="0 0 40 40" style="enable-background:new 0 0 40 40;" xml:space="preserve">
<style type="text/css">
	.st0{fill:#2BA977;}
</style>
<path d="M36.2,40H3.8C1.7,40,0,38.3,0,36.2V3.8C0,1.7,1.7,0,3.8,0h32.4C38.3,0,40,1.7,40,3.8v32.4C40,38.3,38.3,40,36.2,40z"/>
<g>
	<path class="st0" d="M17.6,2.2h5.8v26.7c-3,0.6-5.2,0.8-7.6,0.8C8.7,29.7,5,26.5,5,20.4c0-5.9,3.9-9.7,10-9.7
		c0.9,0,1.7,0.1,2.5,0.3L17.6,2.2L17.6,2.2z M17.8,15.8c-0.7-0.2-1.2-0.3-2-0.3c-2.9,0-4.7,1.8-4.7,4.9c0,3.1,1.6,4.8,4.6,4.8
		c0.6,0,1.2,0,2-0.1L17.8,15.8L17.8,15.8z"/>
	<path class="st0" d="M33,11.4v13.4c0,4.6-0.3,6.8-1.4,8.7c-0.9,1.8-2.2,3-4.8,4.3l-5.4-2.5c2.6-1.2,3.8-2.3,4.6-3.9
		c0.8-1.6,1.1-3.6,1.1-8.6V11.4L33,11.4L33,11.4z M26.6,2.2h5.8v5.9h-5.8V2.2z"/>
</g>
</svg>
