<?xml version="1.0" encoding="UTF-8"?>
<svg id="Layer_1" data-name="Layer 1" xmlns="http://www.w3.org/2000/svg" version="1.1" viewBox="0 0 40 40">
  <defs>
    <style>
      .cls-1 {
        fill: #000;
      }

      .cls-1, .cls-2 {
        stroke-width: 0px;
      }

      .cls-2 {
        fill: #fff;
      }
    </style>
  </defs>
  <path class="cls-1" d="M36.2,40H3.8c-2.1,0-3.8-1.7-3.8-3.8V3.8C0,1.7,1.7,0,3.8,0h32.4c2.1,0,3.8,1.7,3.8,3.8v32.4c0,2.1-1.7,3.8-3.8,3.8Z"/>
  <path class="cls-2" d="M35.5,18.6l-14.1-14.1c-.8-.8-2.1-.8-2.9,0l-2.9,2.9,3.7,3.7c.9-.3,1.9-.1,2.5.6.7.7.9,1.7.6,2.6l3.6,3.6c.9-.3,1.9-.1,2.6.6,1,1,1,2.5,0,3.5s-2.5,1-3.5,0-.9-1.8-.5-2.7l-3.3-3.3v8.8c.2.1.5.3.7.5,1,1,1,2.5,0,3.5s-2.5,1-3.5,0-1-2.5,0-3.5.5-.4.8-.5v-8.9c-.3-.1-.6-.3-.8-.5-.7-.7-.9-1.8-.5-2.7l-3.7-3.7-9.7,9.7c-.8.8-.8,2.1,0,2.9l14.1,14.1c.8.8,2.1.8,2.9,0l14-14c.7-1,.7-2.3-.1-3.1"/>
</svg>