<?xml version="1.0" encoding="utf-8"?>
<!-- Generator: Adobe Illustrator 28.1.0, SVG Export Plug-In . SVG Version: 6.00 Build 0)  -->
<svg version="1.1" id="Layer_1" xmlns="http://www.w3.org/2000/svg" xmlns:xlink="http://www.w3.org/1999/xlink" x="0px" y="0px"
	 viewBox="0 0 40 40" style="enable-background:new 0 0 40 40;" xml:space="preserve">
<style type="text/css">
	.st0{fill-rule:evenodd;clip-rule:evenodd;fill:#FFFFFF;}
</style>
<path d="M36.2,40H3.8C1.7,40,0,38.3,0,36.2V3.8C0,1.7,1.7,0,3.8,0h32.4C38.3,0,40,1.7,40,3.8v32.4C40,38.3,38.3,40,36.2,40z"/>
<path class="st0" d="M20,4.9c-8.5,0-15.5,7-15.5,15.5C4.5,27.2,9,33,15,35.1c0.8,0.1,1-0.4,1-0.8c0-0.3,0-1.3,0-2.7
	c-4.2,1-5.2-2-5.2-2c-0.7-1.8-1.7-2.3-1.7-2.3c-1.4-0.9,0.1-0.9,0.1-0.9c1.5,0.1,2.3,1.6,2.3,1.6c1.4,2.3,3.6,1.7,4.4,1.3
	c0.1-1,0.6-1.7,0.9-2.1c-3.4-0.4-7-1.7-7-7.7c0-1.7,0.6-3,1.6-4.2c-0.1-0.4-0.5-2.1,0.3-4.2c0,0,1.3-0.4,4.3,1.6
	c1.3-0.4,2.6-0.5,3.9-0.5c1.3,0,2.7,0.2,3.9,0.5c2.9-2,4.3-1.6,4.3-1.6c0.8,2.1,0.3,3.7,0.2,4.1c0.9,1,1.6,2.5,1.6,4.2
	c0,6-3.6,7.2-7,7.6c0.6,0.5,1,1.4,1,2.8c0,2.1,0,3.7,0,4.3c0,0.4,0.3,0.8,1,0.8c6.2-2.1,10.6-7.9,10.6-14.7
	C35.5,11.8,28.6,4.9,20,4.9z"/>
</svg>
