<?xml version="1.0" encoding="utf-8"?>
<!-- Generator: Adobe Illustrator 27.4.1, SVG Export Plug-In . SVG Version: 6.00 Build 0)  -->
<svg version="1.1" id="Layer_1" xmlns="http://www.w3.org/2000/svg" xmlns:xlink="http://www.w3.org/1999/xlink" x="0px" y="0px"
	 viewBox="0 0 40 40" style="enable-background:new 0 0 40 40;" xml:space="preserve">
<style type="text/css">
	.st0{fill-rule:evenodd;clip-rule:evenodd;fill:#FFFFFF;}
</style>
<path d="M36.2,40H3.8C1.7,40,0,38.3,0,36.2V3.8C0,1.7,1.7,0,3.8,0h32.4C38.3,0,40,1.7,40,3.8v32.4C40,38.3,38.3,40,36.2,40z"/>
<path class="st0" d="M19.9,1.9C9.7,1.9,1.4,10.2,1.4,20.4C1.4,28.6,6.8,35.5,14,38c0.9,0.1,1.2-0.5,1.2-0.9s0-1.6,0-3.2
	C10.2,35.1,9,31.5,9,31.5c-0.8-2.2-2-2.7-2-2.7c-1.7-1.1,0.1-1.1,0.1-1.1c1.8,0.1,2.8,1.9,2.8,1.9c1.7,2.8,4.3,2,5.3,1.6
	c0.1-1.2,0.7-2,1.1-2.5c-4.1-0.5-8.4-2-8.4-9.2c0-2,0.7-3.6,1.9-5C9.7,14,9.2,12,10.2,9.5c0,0,1.6-0.5,5.1,1.9
	c1.5-0.5,3.1-0.6,4.7-0.6s3.2,0.2,4.7,0.6c3.5-2.4,5.1-1.9,5.1-1.9c1,2.5,0.3,4.4,0.2,4.9c1.1,1.2,1.9,3,1.9,5
	c0,7.2-4.3,8.6-8.4,9.1c0.7,0.6,1.2,1.7,1.2,3.4c0,2.5,0,4.4,0,5.1c0,0.5,0.3,1,1.2,0.9c7.4-2.5,12.6-9.4,12.6-17.6
	C38.5,10.2,30.2,1.9,19.9,1.9z"/>
</svg>
