<?xml version="1.0" encoding="utf-8"?>
<!-- Generator: Adobe Illustrator 27.4.1, SVG Export Plug-In . SVG Version: 6.00 Build 0)  -->
<svg version="1.1" id="Layer_1" xmlns="http://www.w3.org/2000/svg" xmlns:xlink="http://www.w3.org/1999/xlink" x="0px" y="0px"
	 viewBox="0 0 40 40" style="enable-background:new 0 0 40 40;" xml:space="preserve">
<style type="text/css">
	.st0{fill:#F16529;}
	.st1{fill:#EBEBEB;}
	.st2{fill:#FFFFFF;}
</style>
<path class="st0" d="M36.2,40H3.8C1.7,40,0,38.3,0,36.2V3.8C0,1.7,1.7,0,3.8,0h32.4C38.3,0,40,1.7,40,3.8v32.4
	C40,38.3,38.3,40,36.2,40z"/>
<g>
	<path class="st1" d="M5,3.5h15v5.9h-8.4l0.5,6.1h8v5.9H6.7 M6.9,24.6H13l0.4,4.7l6.7,1.9v6.2L7.7,34.1"/>
	<path class="st2" d="M35,3.5H20v5.9h14.4 M34,15.5H20v5.9h7.4l-0.7,8L20,31.3v6.2l12.3-3.4"/>
</g>
</svg>
