<?xml version="1.0" encoding="utf-8"?>
<!-- Generator: Adobe Illustrator 27.4.1, SVG Export Plug-In . SVG Version: 6.00 Build 0)  -->
<svg version="1.1" id="Layer_1" xmlns="http://www.w3.org/2000/svg" xmlns:xlink="http://www.w3.org/1999/xlink" x="0px" y="0px"
	 viewBox="0 0 40 40" style="enable-background:new 0 0 40 40;" xml:space="preserve">
<style type="text/css">
	.st0{fill:#F16529;}
	.st1{fill:#EBEBEB;}
	.st2{fill:#FFFFFF;}
</style>
<path class="st0" d="M36.2,40H3.8C1.7,40,0,38.3,0,36.2V3.8C0,1.7,1.7,0,3.8,0h32.4C38.3,0,40,1.7,40,3.8v32.4
	C40,38.3,38.3,40,36.2,40z"/>
<g>
	<path class="st1" d="M4,2.4h16v6.3h-9l0.5,6.5H20v6.3H5.8 M6,24.9h6.5l0.4,5l7.2,2v6.6L6.9,35"/>
	<path class="st2" d="M36,2.4H20v6.3h15.4 M34.9,15.2l-14.9,0v6.3l7.9,0l-0.7,8.5l-7.2,2v6.6L33.1,35"/>
</g>
</svg>
