<?xml version="1.0" encoding="utf-8"?>
<!-- Generator: Adobe Illustrator 25.4.1, SVG Export Plug-In . SVG Version: 6.00 Build 0)  -->
<svg version="1.1" id="Layer_1" xmlns="http://www.w3.org/2000/svg" xmlns:xlink="http://www.w3.org/1999/xlink" x="0px" y="0px"
	 viewBox="0 0 40 40" style="enable-background:new 0 0 40 40;" xml:space="preserve">
<style type="text/css">
	.st0{fill:#E44D26;}
	.st1{fill:#F16529;}
	.st2{fill:#EBEBEB;}
	.st3{fill:#FFFFFF;}
</style>
<path d="M8.5,0h1.8v1.8h1.7V0h1.8v5.4h-1.8V3.6h-1.6v1.8H8.5 M16.1,1.8h-1.6V0h5v1.8h-1.6v3.6h-1.8 M20.3,0h1.9l1.2,1.9L24.5,0h1.9
	v5.4h-1.8V2.7l-1.3,1.9L22,2.7v2.7h-1.8 M27.2,0H29v3.6h2.5v1.8h-4.3"/>
<path class="st0" d="M8.4,36.8L5.8,7.9h28.3l-2.6,28.9L20,40"/>
<path class="st1" d="M20,37.5V10.2h11.6l-2.2,24.7"/>
<path class="st2" d="M11.1,13.8H20v3.5h-5l0.3,3.6H20v3.5h-7.9 M12.2,26.3h3.6l0.2,2.8l4,1.1v3.7l-7.3-2"/>
<path class="st3" d="M28.9,13.8H20v3.5h8.6 M28.2,21H20v3.5h4.4l-0.4,4.6l-4,1.1v3.7l7.3-2"/>
</svg>
