<?xml version="1.0" encoding="utf-8"?>
<!-- Generator: Adobe Illustrator 27.4.1, SVG Export Plug-In . SVG Version: 6.00 Build 0)  -->
<svg version="1.1" id="Layer_1" xmlns="http://www.w3.org/2000/svg" xmlns:xlink="http://www.w3.org/1999/xlink" x="0px" y="0px"
	 viewBox="0 0 40 40" style="enable-background:new 0 0 40 40;" xml:space="preserve">
<style type="text/css">
	.st0{fill:#F16529;}
	.st1{fill:#EBEBEB;}
	.st2{fill:#FFFFFF;}
</style>
<path class="st0" d="M36.2,40H3.8C1.7,40,0,38.3,0,36.2V3.8C0,1.7,1.7,0,3.8,0h32.4C38.3,0,40,1.7,40,3.8v32.4
	C40,38.3,38.3,40,36.2,40z"/>
<g>
	<path class="st1" d="M6,4.6h14v5.5h-7.8l0.5,5.7h7.5v5.5H7.6 M7.8,24.3h5.7l0.4,4.4l6.3,1.8v5.8L8.5,33.2"/>
	<path class="st2" d="M34,4.6H20v5.5h13.4 M33.1,15.8H20v5.5h6.9l-0.7,7.5L20,30.6v5.8l11.5-3.2"/>
</g>
</svg>
