<?xml version="1.0" encoding="utf-8"?>
<!-- Generator: Adobe Illustrator 27.4.1, SVG Export Plug-In . SVG Version: 6.00 Build 0)  -->
<svg version="1.1" id="Layer_1" xmlns="http://www.w3.org/2000/svg" xmlns:xlink="http://www.w3.org/1999/xlink" x="0px" y="0px"
	 viewBox="0 0 40 40" style="enable-background:new 0 0 40 40;" xml:space="preserve">
<style type="text/css">
	.st0{fill:#330000;}
	.st1{fill:#FF9A00;}
</style>
<path class="st0" d="M36.2,40H3.8C1.7,40,0,38.3,0,36.2V3.8C0,1.7,1.7,0,3.8,0h32.4C38.3,0,40,1.7,40,3.8v32.4
	C40,38.3,38.3,40,36.2,40z"/>
<path class="st1" d="M19,25.3h-6.2l-1.3,4c0,0.2-0.2,0.3-0.3,0.3H8c-0.2,0-0.3-0.1-0.2-0.3l5.4-15.5c0.1-0.2,0.1-0.3,0.2-0.5
	c0.1-0.3,0.1-0.7,0.1-1.1c0-0.1,0.1-0.2,0.2-0.2H18c0.2,0,0.2,0.1,0.3,0.2l6.1,17.3c0.1,0.2,0,0.3-0.2,0.3h-3.5
	c-0.1,0-0.3-0.1-0.3-0.2L19,25.3z M13.7,21.8H18c-0.1-0.3-0.3-0.8-0.3-1.2c-0.2-0.4-0.3-0.9-0.4-1.5c-0.2-0.5-0.3-1-0.5-1.6
	c-0.2-0.5-0.3-1-0.4-1.5c-0.2-0.4-0.3-0.9-0.3-1.3l0,0c-0.2,0.7-0.3,1.5-0.6,2.2c-0.3,0.8-0.5,1.6-0.8,2.5
	C14.2,20.4,14,21.1,13.7,21.8z M28.1,14.7c-0.5,0-1.1-0.2-1.5-0.6c-0.3-0.4-0.6-0.9-0.6-1.6c0-0.6,0.2-1.1,0.6-1.5
	c0.4-0.4,0.9-0.6,1.5-0.6c0.7,0,1.1,0.2,1.6,0.6c0.3,0.4,0.6,0.9,0.5,1.5c0,0.6-0.2,1.1-0.6,1.6C29.2,14.6,28.6,14.7,28.1,14.7
	L28.1,14.7z M26.2,29.2V16.4c0-0.2,0.1-0.3,0.3-0.3h3.3c0.2,0,0.3,0.1,0.3,0.3v12.9c0,0.2-0.1,0.3-0.3,0.3h-3.3
	C26.3,29.5,26.2,29.4,26.2,29.2z"/>
</svg>
