<?xml version="1.0" encoding="UTF-8"?>
<svg id="Layer_1" data-name="Layer 1" xmlns="http://www.w3.org/2000/svg" version="1.1" viewBox="0 0 40 40">
  <defs>
    <style>
      .cls-1 {
        fill: #000;
      }

      .cls-1, .cls-2 {
        stroke-width: 0px;
      }

      .cls-2 {
        fill: #fff;
      }
    </style>
  </defs>
  <path class="cls-1" d="M36.2,40H3.8c-2.1,0-3.8-1.7-3.8-3.8V3.8C0,1.7,1.7,0,3.8,0h32.4c2.1,0,3.8,1.7,3.8,3.8v32.4c0,2.1-1.7,3.8-3.8,3.8Z"/>
  <path class="cls-2" d="M19,25.3h-6.2l-1.3,4c0,.2-.2.3-.3.3h-3.2c-.2,0-.3-.1-.2-.3l5.4-15.5c.1-.2.1-.3.2-.5.1-.3.1-.7.1-1.1s.1-.2.2-.2h4.3c.2,0,.2.1.3.2l6.1,17.3c.1.2,0,.3-.2.3h-3.5c-.1,0-.3-.1-.3-.2l-1.4-4.3ZM13.7,21.8h4.3c-.1-.3-.3-.8-.3-1.2-.2-.4-.3-.9-.4-1.5-.2-.5-.3-1-.5-1.6-.2-.5-.3-1-.4-1.5-.2-.4-.3-.9-.3-1.3h0c-.2.7-.3,1.5-.6,2.2-.3.8-.5,1.6-.8,2.5-.5,1-.7,1.7-1,2.4ZM28.1,14.7c-.5,0-1.1-.2-1.5-.6-.3-.4-.6-.9-.6-1.6s.2-1.1.6-1.5.9-.6,1.5-.6,1.1.2,1.6.6c.3.4.6.9.5,1.5,0,.6-.2,1.1-.6,1.6-.4.5-1,.6-1.5.6h0ZM26.2,29.2v-12.8c0-.2.1-.3.3-.3h3.3c.2,0,.3.1.3.3v12.9c0,.2-.1.3-.3.3h-3.3c-.2,0-.3-.2-.3-.4Z"/>
</svg>