<?xml version="1.0" encoding="utf-8"?>
<!-- Generator: Adobe Illustrator 27.4.1, SVG Export Plug-In . SVG Version: 6.00 Build 0)  -->
<svg version="1.1" id="Layer_1" xmlns="http://www.w3.org/2000/svg" xmlns:xlink="http://www.w3.org/1999/xlink" x="0px" y="0px"
	 viewBox="0 0 40 40" style="enable-background:new 0 0 40 40;" xml:space="preserve">
<style type="text/css">
	.st0{fill:url(#SVGID_1_);}
	.st1{fill:url(#SVGID_00000067929476864353557110000014869713783440786068_);}
	.st2{fill:url(#SVGID_00000052810827516179203110000013494167872796336782_);}
</style>
<path d="M36.2,40H3.8C1.7,40,0,38.3,0,36.2V3.8C0,1.7,1.7,0,3.8,0h32.4C38.3,0,40,1.7,40,3.8v32.4C40,38.3,38.3,40,36.2,40z"/>
<g>
	
		<linearGradient id="SVGID_1_" gradientUnits="userSpaceOnUse" x1="-128.2173" y1="167.6752" x2="-128.2122" y2="167.6752" gradientTransform="matrix(539.015 -318.4933 318.4933 539.015 15715.9941 -131180.5625)">
		<stop  offset="0" style="stop-color:#909CA9"/>
		<stop  offset="1" style="stop-color:#EDEDEE"/>
	</linearGradient>
	<path class="st0" d="M24.6,18.7l-7.6,2.5l-6.6,2.9l-1.9,0.5C8,25.1,7.5,25.5,7,26c-0.6,0.5-1.1,1-1.5,1.3c-0.5,0.4-1.2,1.1-1.5,1.5
		c-0.5,0.7-0.9,1.4-1.1,1.9c-0.3,1-0.2,1.9,0.5,2.9c0.8,1.2,2.3,2.3,4.2,3.1c0.9,0.4,2.5,0.9,3.7,1.2c1.9,0.5,5.7,1,7.8,1.1
		c0.4,0,1,0,1,0c0,0,0.4-0.6,0.7-1.4c1.3-2.6,2.2-5.1,2.7-7.1c0.3-1.3,0.5-2.9,0.7-4.9c0-0.6,0.1-2.4,0-3.1c-0.1-1-0.2-1.9-0.3-2.7
		c0-0.1,0-0.2,0-0.2c0,0,0.1,0,1-0.3L24.6,18.7z M22.8,19.7c0.1,0,0.2,1.8,0.3,2.9c0,0.2,0,0.4,0,0.4c0,0-1-0.5-1.6-1
		c-0.6-0.4-1.7-1.1-1.8-1.2c-0.1,0-0.1,0,0.4-0.2C20.9,20.4,22.7,19.7,22.8,19.7z M18.9,21c0.1,0,0.2,0.1,0.5,0.3
		c1.2,0.7,2.8,1.6,3.5,1.9c0.2,0.1,0.2,0.1-0.2,0.4c-1,0.7-2.4,1.4-3.9,2.1c-0.3,0.1-0.5,0.2-0.5,0.2c0,0,0-0.2,0.1-0.3
		c0.4-1.4,0.6-2.9,0.6-4C18.9,21,18.9,21,18.9,21L18.9,21z M18.1,21.3c0,0,0,1.3,0,1.7c-0.1,0.8-0.3,1.6-0.5,2.5
		c-0.1,0.2-0.1,0.4-0.1,0.4c0,0-0.8-0.7-1.1-1c-0.5-0.5-0.8-1-1.1-1.5c-0.1-0.3-0.3-0.8-0.3-0.8C15.1,22.5,18.1,21.3,18.1,21.3
		L18.1,21.3z M14.4,22.8c0,0,0.1,0.1,0.1,0.2c0.2,0.5,0.6,1.2,1,1.7c0.4,0.5,0.9,1.1,1.3,1.4c0.1,0.1,0.3,0.2,0.3,0.2
		c0,0,0,0-0.9,0.4c-1.1,0.4-2.3,0.8-3.6,1.3c-0.3,0.1-0.6,0.2-1,0.3c-0.1,0,0,0,0.1-0.2c0.7-1.1,1.7-3.1,2.3-4.6
		c0.1-0.2,0.2-0.5,0.2-0.6C14.2,22.9,14.2,22.8,14.4,22.8C14.3,22.8,14.4,22.8,14.4,22.8L14.4,22.8z M13.2,23.3c0,0-0.3,0.6-0.6,1.2
		c-0.6,1.1-1.2,2.2-2,3.5c-0.1,0.2-0.3,0.4-0.3,0.5c0,0,0,0-0.1-0.2c-0.2-0.4-0.4-0.9-0.4-1.3c-0.1-0.5-0.1-1.2,0-1.7
		c0.1-0.4,0.1-0.4,0.2-0.4C10.8,24.4,13.2,23.3,13.2,23.3L13.2,23.3z M23.1,23.7v0.2c0,1.3-0.1,3-0.3,4.3c0,0.2-0.1,0.4-0.1,0.4
		c0,0-0.2,0-0.4-0.1c-0.9-0.3-1.8-0.7-2.6-1.1c-0.6-0.3-1.4-0.8-1.3-0.8c0,0,0.2-0.1,0.5-0.3c1.1-0.6,2.2-1.2,3.2-1.9
		C22.4,24.3,23,23.9,23.1,23.7L23.1,23.7z M8.9,25.4c0,0,0,0,0,0.2c0,0.2-0.1,0.4-0.1,0.6c0,0.8,0.1,1.5,0.5,2.3
		C9.4,28.8,9.5,29,9.5,29c0,0-3.9,1.2-5,1.5c-0.4,0.1-0.7,0.2-0.7,0.2c0,0,0,0,0-0.1c0.1-0.8,0.8-1.9,1.7-2.9c0.6-0.6,1.1-1,1.9-1.5
		C7.9,25.9,8.8,25.4,8.9,25.4C8.9,25.4,8.9,25.4,8.9,25.4L8.9,25.4z M17.9,27c0,0,0.2,0.1,0.3,0.2c1.2,0.7,2.9,1.4,4.4,1.7l0.1,0
		L22.5,29c-0.8,0.4-3.3,1.5-5.9,2.4c-0.4,0.1-0.7,0.3-0.8,0.3c-0.1,0-0.1,0-0.1,0s0.1-0.2,0.2-0.5c0.7-1.3,1.4-3,1.8-4.1
		C17.8,27.1,17.9,27,17.9,27L17.9,27z M16.9,27.3c0,0,0,0.1-0.1,0.3c-0.5,1.2-1.2,2.5-2,4c-0.2,0.4-0.4,0.7-0.4,0.7
		s-0.2-0.1-0.4-0.2c-1.2-0.8-2.3-1.7-3-2.6L11,29.3l0.5-0.2c1.9-0.5,3.5-1.1,5.1-1.7C16.7,27.4,16.9,27.3,16.9,27.3L16.9,27.3z
		 M22.6,29.3c0,0.1-0.3,1.3-0.5,2.2c-0.2,0.7-0.4,1.3-0.7,2.3c-0.1,0.4-0.3,0.8-0.3,0.8s0,0-0.1,0c-1.7-0.3-3.2-0.7-4.7-1.3
		c-0.4-0.2-1-0.4-1-0.5c0,0,0.3-0.2,0.8-0.4c2.6-1.2,5.3-2.4,6.3-3C22.5,29.3,22.6,29.3,22.6,29.3L22.6,29.3z M9.5,29.7
		c0,0-0.7,1.1-1.7,2.5c-0.4,0.5-0.8,1.1-0.9,1.3c-0.2,0.2-0.4,0.6-0.5,0.8l-0.2,0.4l-0.3-0.2c-0.3-0.2-0.8-0.8-1.1-1.1
		c-0.5-0.6-0.8-1.3-1-1.9c-0.1-0.3-0.1-0.4,0-0.4c0.1,0,1.6-0.4,3.1-0.7c0.8-0.2,1.7-0.4,2.1-0.5C9.2,29.8,9.5,29.7,9.5,29.7
		L9.5,29.7z M10.2,30l0.2,0.2c0.8,0.9,1.7,1.6,2.7,2.2c0.2,0.1,0.3,0.2,0.3,0.2c0,0-3.5,1.3-5.2,1.8c-0.9,0.3-1.7,0.6-1.7,0.6
		L6.5,35l-0.1-0.1l0.2-0.2c0.5-0.8,1.2-1.6,2.7-3.4L10.2,30z M14.8,33.3c0,0,0.3,0.1,0.6,0.2c0.8,0.3,1.3,0.5,2.1,0.7
		c1,0.2,2.4,0.5,3.2,0.6c0.1,0,0.2,0,0.2,0c0,0-0.9,0.3-1.5,0.5c-1,0.3-4,1.2-6.5,1.9c-0.5,0.1-0.8,0.2-0.9,0.2
		c-0.1,0-0.2,0-0.2-0.1s0.1-0.2,0.3-0.4c0.8-1,1.6-2.1,2.3-3.1C14.7,33.5,14.8,33.3,14.8,33.3L14.8,33.3z M13.8,33.3
		c0,0-0.4,0.7-1.1,1.8c-0.3,0.5-0.6,1-0.8,1.2c-0.1,0.2-0.3,0.5-0.4,0.6l-0.2,0.3l-0.1,0c-0.2-0.1-1.7-0.6-2-0.7
		c-0.5-0.2-1-0.4-1.3-0.6c-0.5-0.2-1-0.6-1-0.6c0,0,0.8-0.2,1.8-0.5c2.5-0.7,3.9-1.1,4.8-1.4C13.7,33.4,13.8,33.3,13.8,33.3
		L13.8,33.3z M21,35c0,0.1-0.9,2.6-1.2,3.5c-0.1,0.2-0.1,0.2-0.2,0.2c-0.1,0-1.5-0.2-2.3-0.3c-1.4-0.2-3.8-0.6-4.4-0.8l-0.1,0
		l0.8-0.2c1.9-0.4,2.7-0.6,3.6-0.9c1.1-0.3,2.2-0.8,3.4-1.3C20.8,35.1,20.9,35,21,35z"/>
	
		<linearGradient id="SVGID_00000124857500342976199190000006325553126072356031_" gradientUnits="userSpaceOnUse" x1="-130.4943" y1="180.0576" x2="-130.4892" y2="180.0576" gradientTransform="matrix(433.7041 0 0 433.7041 56604.3477 -78087.1484)">
		<stop  offset="0" style="stop-color:#939FAB"/>
		<stop  offset="1" style="stop-color:#DCDEE1"/>
	</linearGradient>
	<path style="fill:url(#SVGID_00000124857500342976199190000006325553126072356031_);" d="M16.7,1c-0.1,0-2.2,0.7-3.5,1.2
		c-1.8,0.7-3.2,1.4-4,2C8.9,4.5,8.5,4.9,8.4,5c0,0.1,0,0.1,0,0.2L9.2,6L11,6.6l4.4,0.8l5,0.8l0.1-0.4h0l-0.7-0.1l-0.1-0.2
		c-0.7-1.2-1.4-2.7-1.9-3.7C17.4,3,17,2.1,16.9,1.4C16.8,1,16.8,1,16.7,1L16.7,1z M16.6,1.3c0,0,0,0.2,0.1,0.4
		c0.1,0.8,0.3,1.6,0.6,2.4c0.2,0.6,0.2,0.6,0,0.5C16.6,4.4,14,4,12.1,3.7c-0.3,0-0.6-0.1-0.6-0.1c0,0,1.4-0.8,2-1
		C14.3,2.2,16.5,1.3,16.6,1.3L16.6,1.3z M11.1,3.9l0.2,0.1c1.2,0.4,4.3,1,6,1.1c0.2,0,0.4,0,0.4,0s-0.2,0.1-0.4,0.2
		c-0.8,0.4-1.7,0.9-2.3,1.3c-0.2,0.1-0.4,0.2-0.4,0.2c0,0-0.2,0-0.3,0l-0.2,0l-0.6-0.6c-1-1-1.8-1.7-2.1-2L11.1,3.9z M10.8,4l0.8,1
		c0.4,0.6,0.9,1.1,1,1.2c0.1,0.1,0.2,0.2,0.2,0.2c0,0-1.2-0.2-1.8-0.3C10.4,6,10.1,6,9.8,5.8L9.4,5.7V5.7C9.4,5.3,9.9,4.7,10.8,4
		L10.8,4z M17.7,5.4c0,0,0.1,0.1,0.1,0.2c0.2,0.4,0.8,1.6,1,1.8c0,0.1,0.1,0.1-0.7-0.1c-1.9-0.3-2.6-0.4-2.6-0.4c0,0,0.1,0,0.1-0.1
		c0.6-0.3,1.2-0.8,1.8-1.2C17.6,5.5,17.7,5.4,17.7,5.4C17.7,5.4,17.7,5.4,17.7,5.4z"/>
	
		<radialGradient id="SVGID_00000103240374650075650940000008826145066384364932_" cx="-124.5276" cy="168.8977" r="5.104705e-03" gradientTransform="matrix(-552.9619 -83.0608 167.9883 -1105.9233 -97212.2734 176459.3125)" gradientUnits="userSpaceOnUse">
		<stop  offset="0" style="stop-color:#EE352C"/>
		<stop  offset="1" style="stop-color:#A91D22"/>
	</radialGradient>
	<path style="fill:url(#SVGID_00000103240374650075650940000008826145066384364932_);" d="M8.5,4.9c0,0-0.1,0.2,0,0.5
		C8.5,5.6,8.8,5.9,9,6.1c0,0,2.6,2.5,2.9,2.9c1.4,1.6,2,3.2,2.1,5.5c0,1.4-0.2,2.7-0.9,4.1c-1.2,2.6-3.7,5.5-7.6,8.7L6,27
		c0.4-0.3,0.9-0.6,2-1.2c2.7-1.5,5.8-2.9,9.5-4.2c5.4-2,14.2-4.4,19.3-5.2l0.5-0.1l-0.1-0.1c-0.5-0.7-0.8-1.2-1.2-1.6
		c-1.1-1.4-2.4-2.5-4.1-3.4c-2.2-1.3-5.2-2.2-8.9-3c-0.7-0.1-2.2-0.4-3.5-0.6c-2.6-0.4-4.3-0.7-6.2-1c-0.7-0.1-1.7-0.3-2.3-0.4
		c-0.3-0.1-1-0.2-1.5-0.4C9.2,5.6,8.6,5.4,8.5,4.9L8.5,4.9z M10,6.4c0,0,0.1,0,0.2,0.1c0.2,0.1,0.5,0.2,0.8,0.2
		c0.2,0.1,0.5,0.1,0.8,0.2c0.3,0.1,0.6,0.2,0.6,0.2c0,0,0.6,1.9,0.8,2.6c0.1,0.3,0.1,0.5,0.1,0.5s-0.1-0.1-0.2-0.2
		c-0.7-1.2-1.7-2.4-3-3.4C10.1,6.5,10,6.4,10,6.4L10,6.4z M12.8,7.2c0,0,0.2,0,0.3,0.1c1,0.2,2.7,0.5,3.9,0.7C17.1,8,17.3,8,17.3,8
		s-0.1,0.1-0.2,0.1c-0.2,0.1-1,0.5-1.2,0.7c-0.6,0.4-1.2,0.9-1.6,1.3L14,10.5c0,0,0-0.1-0.1-0.2c-0.2-0.8-0.6-2-1-2.8
		C12.8,7.3,12.8,7.2,12.8,7.2C12.8,7.2,12.8,7.2,12.8,7.2L12.8,7.2z M17.8,8.1c0,0,0.1,0.2,0.2,0.6c0.2,0.8,0.3,1.8,0.3,2.6
		c0,0.2,0,0.5,0,0.5l0,0.1l-0.3-0.1c-0.6-0.2-1.6-0.5-2.5-0.7c-0.5-0.1-0.9-0.2-0.9-0.3c0,0,0.7-0.8,1-1C16.1,9.3,17.7,8.1,17.8,8.1
		L17.8,8.1z M18.2,8.2c0,0,2.4,0.4,3.5,0.6c0.8,0.2,2,0.4,2,0.4c0,0-0.1,0.1-0.5,0.2c-1.5,0.7-2.6,1.3-3.8,2
		c-0.3,0.2-0.5,0.4-0.5,0.4s0-0.2,0-0.4c0-1.1-0.2-2.2-0.6-3.1C18.2,8.3,18.2,8.2,18.2,8.2z M24.3,9.4c0,0-0.1,0.5-0.1,0.8
		c-0.2,0.8-0.8,2.1-1.5,3.3c-0.1,0.2-0.2,0.4-0.2,0.4c0,0-0.2-0.1-0.3-0.2c-0.7-0.4-1.4-0.8-2.2-1.1c-0.2-0.1-0.4-0.2-0.4-0.2
		c0,0,1.8-1.3,2.8-1.9C23,10.1,24.3,9.4,24.3,9.4z M24.7,9.5c0.1,0,1.1,0.3,1.6,0.5c1.4,0.4,2.9,1,3.9,1.4l0.4,0.2l-0.3,0.1
		c-2.5,0.6-4.6,1.2-6.6,2.1c-0.2,0.1-0.3,0.1-0.3,0.1c0,0,0-0.1,0.1-0.3c0.6-1.3,1-2.7,1.1-3.8C24.7,9.6,24.7,9.5,24.7,9.5L24.7,9.5
		z M14.3,11.9c0,0,0.8,0.2,1.2,0.3c0.7,0.2,2,0.6,2,0.7c0,0-0.2,0.1-0.3,0.3c-0.8,0.6-1.5,1.3-2.3,2.1c-0.3,0.2-0.5,0.5-0.5,0.5
		c0,0,0,0,0-0.1c0.1-1,0.1-2.2-0.1-3.5C14.3,12,14.3,11.9,14.3,11.9L14.3,11.9z M31.1,11.9c0,0-0.4,0.6-0.6,0.9
		c-0.3,0.5-0.8,1.2-2,2.6c-0.6,0.8-1.3,1.6-1.5,1.9c-0.2,0.3-0.4,0.5-0.4,0.5c0,0-0.1-0.1-0.2-0.2c-0.6-1-1.4-1.8-2.3-2.6
		c-0.2-0.2-0.4-0.3-0.4-0.3c-0.1,0-0.1-0.1-0.1-0.1c0,0,1-0.4,1.7-0.7c1.3-0.5,3.1-1.2,4.4-1.6C30.3,12.1,31.1,11.9,31.1,11.9z
		 M31.5,12c0,0,0.2,0.1,0.3,0.2c1.4,0.8,2.8,1.8,3.9,2.9c0.3,0.3,1.1,1.1,1,1.1c0,0-0.3,0-0.6,0c-2.4,0.2-5.5,0.7-8.5,1.4
		c-0.2,0-0.4,0.1-0.4,0.1s0.2-0.2,0.5-0.5c1.8-1.7,2.5-2.8,3.5-4.6C31.4,12.2,31.5,12,31.5,12C31.5,12,31.5,12,31.5,12L31.5,12z
		 M18.7,13.3c0.1,0,0.8,0.4,1.4,0.6c0.5,0.3,1.3,0.7,1.3,0.7c0,0-0.3,0.2-0.6,0.3c-1.1,0.5-2,1.1-3,1.6c-0.3,0.2-0.5,0.3-0.5,0.3
		c0,0,0,0,0.1-0.3c0.5-0.9,0.9-2.1,1.2-3.2C18.7,13.3,18.7,13.3,18.7,13.3L18.7,13.3z M18,13.4c0,0-0.2,0.7-0.3,1.1
		c-0.2,0.7-0.6,1.6-1,2.3c-0.1,0.2-0.2,0.4-0.3,0.5l-0.2,0.2l-0.3-0.3c-0.4-0.4-0.7-0.6-1.1-0.8c-0.2-0.1-0.3-0.2-0.3-0.2
		c0,0,1-0.9,1.7-1.6C16.8,14.3,18,13.4,18,13.4z M22.6,15.3l0.3,0.2c0.6,0.4,1.4,1,2,1.5c0.3,0.3,1,0.8,1.1,1L26,18l-0.5,0.1
		c-2.6,0.7-4.7,1.4-7,2.2c-0.3,0.1-0.5,0.2-0.5,0.2c0,0-0.1,0,0.5-0.5c1.5-1.4,2.9-2.9,3.9-4.4L22.6,15.3z M21.3,15.6
		c0,0-0.8,1.1-1.2,1.8c-0.6,0.8-1.6,2-2.2,2.8c-0.3,0.3-0.5,0.6-0.5,0.6c0,0,0-0.1,0-0.2c0-0.7-0.2-1.4-0.5-2.1
		c-0.1-0.3-0.2-0.3-0.1-0.4c0.1-0.1,1.8-1.1,2.9-1.6C20.2,16.2,21.3,15.6,21.3,15.6z M14.1,17.4c0,0,0.2,0.1,0.3,0.2
		c0.4,0.2,0.7,0.4,1,0.7c0,0-0.1,0.1-0.3,0.3c-0.5,0.4-1.4,1-1.9,1.4c-0.5,0.4-0.5,0.4-0.5,0.3c0.4-0.6,0.6-0.9,0.8-1.3
		c0.2-0.4,0.4-0.8,0.5-1.2C14,17.5,14.1,17.4,14.1,17.4L14.1,17.4z M16,18.9c0,0,0.1,0,0.2,0.3c0.3,0.5,0.6,1.2,0.6,1.7l0,0.1
		l-0.8,0.3c-1.4,0.5-2.7,1.1-3.6,1.5c-0.2,0.1-0.7,0.3-1,0.5c-0.3,0.2-0.5,0.2-0.5,0.2s0.2-0.1,0.4-0.3c1.7-1.2,3.2-2.6,4.3-4
		C15.9,19,16,18.9,16,18.9L16,18.9z M15.1,19.1c0,0-0.6,0.8-1.1,1.2c-1.1,1.1-2.2,2-3.6,2.9c-0.2,0.1-0.3,0.2-0.3,0.2
		c0,0,0,0,0.6-0.7c0.4-0.4,0.7-0.8,1-1.2c0.2-0.3,0.3-0.3,0.6-0.5C13.2,20.4,15.1,19.1,15.1,19.1z"/>
</g>
</svg>
