<?xml version="1.0" encoding="UTF-8"?>
<svg id="Layer_1" data-name="Layer 1" xmlns="http://www.w3.org/2000/svg" xmlns:xlink="http://www.w3.org/1999/xlink" version="1.1" viewBox="0 0 40 40">
  <defs>
    <style>
      .cls-1 {
        fill: url(#linear-gradient);
      }

      .cls-1, .cls-2, .cls-3, .cls-4 {
        stroke-width: 0px;
      }

      .cls-2 {
        fill: #999;
      }

      .cls-3 {
        fill: #000;
      }

      .cls-4 {
        fill: url(#linear-gradient-2);
      }
    </style>
    <linearGradient id="linear-gradient" x1="-507" y1="252.5" x2="-507" y2="252.5" gradientTransform="translate(353709.4 -25343.2) rotate(-30.6) scale(626.1 -626.1)" gradientUnits="userSpaceOnUse">
      <stop offset="0" stop-color="#909ca9"/>
      <stop offset="1" stop-color="#ededee"/>
    </linearGradient>
    <linearGradient id="linear-gradient-2" x1="-508.6" y1="240.1" x2="-508.6" y2="240.1" gradientTransform="translate(220599.2 104123.3) scale(433.7 -433.7)" gradientUnits="userSpaceOnUse">
      <stop offset="0" stop-color="#939fab"/>
      <stop offset="1" stop-color="#dcdee1"/>
    </linearGradient>
  </defs>
  <path class="cls-3" d="M36.2,40H3.8c-2.1,0-3.8-1.7-3.8-3.8V3.8C0,1.7,1.7,0,3.8,0h32.4c2.1,0,3.8,1.7,3.8,3.8v32.4c0,2.1-1.7,3.8-3.8,3.8Z"/>
  <g>
    <path class="cls-1" d="M24.6,18.7l-7.6,2.5-6.6,2.9-1.9.5c-.5.5-1,.9-1.5,1.4-.6.5-1.1,1-1.5,1.3-.5.4-1.2,1.1-1.5,1.5-.5.7-.9,1.4-1.1,1.9-.3,1-.2,1.9.5,2.9.8,1.2,2.3,2.3,4.2,3.1.9.4,2.5.9,3.7,1.2,1.9.5,5.7,1,7.8,1.1h1s.4-.6.7-1.4c1.3-2.6,2.2-5.1,2.7-7.1.3-1.3.5-2.9.7-4.9,0-.6.1-2.4,0-3.1-.1-1-.2-1.9-.3-2.7v-.2s.1,0,1-.3l-.3-.6ZM22.8,19.7c.1,0,.2,1.8.3,2.9v.4s-1-.5-1.6-1c-.6-.4-1.7-1.1-1.8-1.2q-.1,0,.4-.2c.8-.2,2.6-.9,2.7-.9ZM18.9,21c.1,0,.2.1.5.3,1.2.7,2.8,1.6,3.5,1.9q.2.1-.2.4c-1,.7-2.4,1.4-3.9,2.1-.3.1-.5.2-.5.2,0,0,0-.2.1-.3.4-1.4.6-2.9.6-4v-.6h-.1ZM18.1,21.3v1.7c-.1.8-.3,1.6-.5,2.5-.1.2-.1.4-.1.4,0,0-.8-.7-1.1-1-.5-.5-.8-1-1.1-1.5-.1-.3-.3-.8-.3-.8.1-.1,3.1-1.3,3.1-1.3h0ZM14.4,22.8s.1.1.1.2c.2.5.6,1.2,1,1.7s.9,1.1,1.3,1.4c.1.1.3.2.3.2l-.9.4c-1.1.4-2.3.8-3.6,1.3-.3.1-.6.2-1,.3-.1,0,0,0,.1-.2.7-1.1,1.7-3.1,2.3-4.6.1-.2.2-.5.2-.6,0,0,0,0,.2,0,0,0,0,0,0,0h0ZM13.2,23.3l-.6,1.2c-.6,1.1-1.2,2.2-2,3.5-.1.2-.3.4-.3.5v-.2c-.3-.4-.5-.9-.5-1.3-.1-.5-.1-1.2,0-1.7q.1-.4.2-.4c.8-.5,3.2-1.6,3.2-1.6h0ZM23.1,23.7v.2c0,1.3-.1,3-.3,4.3,0,.2-.1.4-.1.4,0,0-.2,0-.4-.1-.9-.3-1.8-.7-2.6-1.1-.6-.3-1.4-.8-1.3-.8,0,0,.2-.1.5-.3,1.1-.6,2.2-1.2,3.2-1.9.3-.1.9-.5,1-.7h0ZM8.9,25.4v.2c0,.2-.1.4-.1.6,0,.8.1,1.5.5,2.3.1.3.2.5.2.5,0,0-3.9,1.2-5,1.5-.4.1-.7.2-.7.2h0c0-.9.8-2,1.7-3,.6-.6,1.1-1,1.9-1.5.5-.3,1.4-.8,1.5-.8h0ZM17.9,27s.2.1.3.2c1.2.7,2.9,1.4,4.4,1.7h.1-.2c-.8.5-3.3,1.6-5.9,2.5-.4.1-.7.3-.8.3h-.1s.1-.2.2-.5c.7-1.3,1.4-3,1.8-4.1.1,0,.2,0,.2,0h0ZM16.9,27.3s0,.1-.1.3c-.5,1.2-1.2,2.5-2,4-.2.4-.4.7-.4.7,0,0-.2,0-.4-.2-1.2-.8-2.3-1.7-3-2.6v-.2l.5-.2c1.9-.5,3.5-1.1,5.1-1.7.1,0,.3,0,.3,0h0ZM22.6,29.3c0,.1-.3,1.3-.5,2.2-.2.7-.4,1.3-.7,2.3-.1.4-.3.8-.3.8h-.1c-1.7-.3-3.2-.7-4.7-1.3-.4-.2-1-.4-1-.5,0,0,.3-.2.8-.4,2.6-1.2,5.3-2.4,6.3-3,.1,0,.2,0,.2,0h0ZM9.5,29.7s-.7,1.1-1.7,2.5c-.4.5-.8,1.1-.9,1.3-.2.2-.4.6-.5.8l-.2.4-.3-.2c-.3-.2-.8-.8-1.1-1.1-.5-.6-.8-1.3-1-1.9,0-.3,0-.4,0-.4s1.6-.4,3.1-.7c.8-.2,1.7-.4,2.1-.5.2-.1.5-.2.5-.2h0ZM10.2,30l.2.2c.8.9,1.7,1.6,2.7,2.2.2,0,.3.2.3.2,0,0-3.5,1.3-5.2,1.8-.9.3-1.7.6-1.7.6h0c0,0,.2-.3.2-.3.5-.8,1.2-1.6,2.7-3.4l.9-1.3ZM14.8,33.3s.3,0,.6.2c.8.3,1.3.5,2.1.7,1,.2,2.4.5,3.2.6h.2s-.9.3-1.5.5c-1,.3-4,1.2-6.5,1.9-.5,0-.8.2-.9.2s-.2,0-.2,0,.1-.2.3-.4c.8-1,1.6-2.1,2.3-3.1.3-.3.4-.5.4-.5h0ZM13.8,33.3s-.4.7-1.1,1.8c-.3.5-.6,1-.8,1.2-.1.2-.3.5-.4.6l-.2.3h-.1c-.2,0-1.7-.6-2-.7-.5-.2-1-.4-1.3-.6-.5-.2-1-.6-1-.6,0,0,.8-.2,1.8-.5,2.5-.7,3.9-1.1,4.8-1.4.2,0,.3,0,.3,0h0ZM21,35c0,0-.9,2.6-1.2,3.5q-.1.2-.2.2c-.1,0-1.5-.2-2.3-.3-1.4-.2-3.8-.6-4.4-.8h-.1l.8-.2c1.9-.4,2.7-.6,3.6-.9,1.1-.3,2.2-.8,3.4-1.3.2-.1.3-.2.4-.2Z"/>
    <path class="cls-4" d="M16.7,1c-.1,0-2.2.7-3.5,1.2-1.8.7-3.2,1.4-4,2-.3.3-.7.7-.8.8v.2l.8.8,1.8.6,4.4.8,5,.8v-.4h.1-.7c0,0-.1-.3-.1-.3-.7-1.2-1.4-2.7-1.9-3.7-.4-.8-.8-1.7-.9-2.4q-.1-.4-.2-.4h0ZM16.6,1.3s0,.2.1.4c.1.8.3,1.6.6,2.4q.2.6,0,.5c-.7-.2-3.3-.6-5.2-.9-.3,0-.6,0-.6,0,0,0,1.4-.8,2-1,.8-.4,3-1.3,3.1-1.3h0ZM11.1,3.9h.2c1.2.5,4.3,1.1,6,1.2h.4s-.2,0-.4.2c-.8.4-1.7.9-2.3,1.3l-.4.2h-.5l-.6-.6c-1-1-1.8-1.7-2.1-2l-.3-.3ZM10.8,4l.8,1c.4.6.9,1.1,1,1.2s.2.2.2.2c0,0-1.2-.2-1.8-.3-.6,0-.9,0-1.2-.3h-.4c0-.5.5-1.1,1.4-1.8h0ZM17.7,5.4s.1,0,.1.2c.2.4.8,1.6,1,1.8,0,0,.1,0-.7,0-1.9-.3-2.6-.4-2.6-.4,0,0,.1,0,.1,0,.6-.3,1.2-.8,1.8-1.2.2,0,.3-.2.3-.2h0Z"/>
    <path class="cls-2" d="M8.5,4.9s-.1.2,0,.5c0,.2.3.5.5.7,0,0,2.6,2.5,2.9,2.9,1.4,1.6,2,3.2,2.1,5.5,0,1.4-.2,2.7-.9,4.1-1.2,2.6-3.7,5.5-7.6,8.7l.5-.3c.4-.3.9-.6,2-1.2,2.7-1.5,5.8-2.9,9.5-4.2,5.4-2,14.2-4.4,19.3-5.2h.5c0-.1,0-.2,0-.2-.5-.7-.8-1.2-1.2-1.6-1.1-1.4-2.4-2.5-4.1-3.4-2.2-1.3-5.2-2.2-8.9-3-.7-.1-2.2-.4-3.5-.6-2.6-.4-4.3-.7-6.2-1-.7,0-1.7-.3-2.3-.4-.3,0-1-.2-1.5-.4-.3-.2-.9-.4-1-.9h0ZM10,6.4s.1,0,.2,0c.2,0,.5.2.8.2.2,0,.5,0,.8.2l.6.2s.6,1.9.8,2.6c.1.3.1.5.1.5l-.2-.2c-.7-1.2-1.7-2.4-3-3.4,0,0-.1-.2-.1-.2h0ZM12.8,7.2s.2,0,.3,0c1,.2,2.7.5,3.9.7.1,0,.3,0,.3,0,0,0-.1.1-.2.1-.2.1-1,.5-1.2.7-.6.4-1.2.9-1.6,1.3l-.3.4s0-.1-.1-.2c-.2-.8-.6-2-1-2.8,0-.2,0-.3,0-.3h0ZM17.8,8.1s.1.2.2.6c.2.8.3,1.8.3,2.6v.5h0c0,.1-.3,0-.3,0-.6-.2-1.6-.5-2.5-.7-.5-.1-.9-.2-.9-.3,0,0,.7-.8,1-1,.5-.5,2.1-1.7,2.2-1.7h0ZM18.2,8.2s2.4.4,3.5.6c.8.2,2,.4,2,.4,0,0-.1.1-.5.2-1.5.7-2.6,1.3-3.8,2-.3.2-.5.4-.5.4v-.4c0-1.1-.2-2.2-.6-3.1-.1,0-.1,0-.1,0ZM24.3,9.4s-.1.5-.1.8c-.2.8-.8,2.1-1.5,3.3l-.2.4s-.2-.1-.3-.2c-.7-.4-1.4-.8-2.2-1.1l-.4-.2s1.8-1.3,2.8-1.9c.6-.4,1.9-1.1,1.9-1.1ZM24.7,9.5c.1,0,1.1.3,1.6.5,1.4.4,2.9,1,3.9,1.4l.4.2h-.3c-2.5.7-4.6,1.3-6.6,2.2-.2.1-.3.1-.3.1,0,0,0-.1.1-.3.6-1.3,1-2.7,1.1-3.8,0-.2,0-.3,0-.3h0ZM14.3,11.9s.8.2,1.2.3c.7.2,2,.6,2,.7,0,0-.2.1-.3.3-.8.6-1.5,1.3-2.3,2.1-.3.2-.5.5-.5.5h0c.1-1.1.1-2.3-.1-3.6v-.3h0ZM31.1,11.9s-.4.6-.6.9c-.3.5-.8,1.2-2,2.6-.6.8-1.3,1.6-1.5,1.9s-.4.5-.4.5l-.2-.2c-.6-1-1.4-1.8-2.3-2.6-.2-.2-.4-.3-.4-.3-.1,0-.1-.1-.1-.1,0,0,1-.4,1.7-.7,1.3-.5,3.1-1.2,4.4-1.6.6-.2,1.4-.4,1.4-.4ZM31.5,12s.2.1.3.2c1.4.8,2.8,1.8,3.9,2.9.3.3,1.1,1.1,1,1.1h-.6c-2.4.2-5.5.7-8.5,1.4-.2,0-.4.1-.4.1l.5-.5c1.8-1.7,2.5-2.8,3.5-4.6.2-.4.3-.6.3-.6h0ZM18.7,13.3c.1,0,.8.4,1.4.6.5.3,1.3.7,1.3.7,0,0-.3.2-.6.3-1.1.5-2,1.1-3,1.6-.3.2-.5.3-.5.3v-.3c.6-.9,1-2.1,1.3-3.2h.1ZM18,13.4s-.2.7-.3,1.1c-.2.7-.6,1.6-1,2.3-.1.2-.2.4-.3.5l-.2.2-.3-.3c-.4-.4-.7-.6-1.1-.8-.2-.1-.3-.2-.3-.2,0,0,1-.9,1.7-1.6.6-.3,1.8-1.2,1.8-1.2ZM22.6,15.3l.3.2c.6.4,1.4,1,2,1.5.3.3,1,.8,1.1,1h-.5c-2.6.8-4.7,1.5-7,2.3-.3.1-.5.2-.5.2,0,0-.1,0,.5-.5,1.5-1.4,2.9-2.9,3.9-4.4l.2-.3ZM21.3,15.6s-.8,1.1-1.2,1.8c-.6.8-1.6,2-2.2,2.8-.3.3-.5.6-.5.6v-.2c0-.7-.2-1.4-.5-2.1-.1-.3-.2-.3-.1-.4s1.8-1.1,2.9-1.6c.5-.3,1.6-.9,1.6-.9ZM14.1,17.4s.2.1.3.2c.4.2.7.4,1,.7,0,0-.1.1-.3.3-.5.4-1.4,1-1.9,1.4s-.5.4-.5.3c.4-.6.6-.9.8-1.3s.4-.8.5-1.2c0-.3,0-.4,0-.4h0ZM16,18.9s.1,0,.2.3c.3.5.6,1.2.6,1.7h0c0,.1-.8.4-.8.4-1.4.5-2.7,1.1-3.6,1.5-.2.1-.7.3-1,.5s-.5.2-.5.2c0,0,.2-.1.4-.3,1.7-1.2,3.2-2.6,4.3-4,.3-.2.4-.3.4-.3h0ZM15.1,19.1s-.6.8-1.1,1.2c-1.1,1.1-2.2,2-3.6,2.9-.2.1-.3.2-.3.2l.6-.7c.4-.4.7-.8,1-1.2.2-.3.3-.3.6-.5.9-.6,2.8-1.9,2.8-1.9Z"/>
  </g>
</svg>