<?xml version="1.0" encoding="utf-8"?>
<!-- Generator: Adobe Illustrator 27.4.1, SVG Export Plug-In . SVG Version: 6.00 Build 0)  -->
<svg version="1.1" id="Layer_1" xmlns="http://www.w3.org/2000/svg" xmlns:xlink="http://www.w3.org/1999/xlink" x="0px" y="0px"
	 viewBox="0 0 40 40" style="enable-background:new 0 0 40 40;" xml:space="preserve">
<style type="text/css">
	.st0{fill:#001E36;}
	.st1{fill:#31A8FF;}
</style>
<path class="st0" d="M36.2,40H3.8C1.7,40,0,38.3,0,36.2V3.8C0,1.7,1.7,0,3.8,0h32.4C38.3,0,40,1.7,40,3.8v32.4
	C40,38.3,38.3,40,36.2,40z"/>
<g id="Outlined_Mnemonics_Logos">
	<g id="Ps">
		<path class="st1" d="M6,28.8V8.9c0-0.1,0.1-0.2,0.2-0.2c0.3,0,0.7,0,1.1,0c0.5,0,0.9,0,1.5,0c0.6,0,1.1,0,1.7,0c0.6,0,1.1,0,1.8,0
			c1.6,0,3,0.2,4,0.6s1.8,0.9,2.6,1.6c0.6,0.6,1.1,1.4,1.4,2.2c0.3,0.8,0.5,1.7,0.5,2.5c0,1.7-0.3,3.1-1.1,4.1
			c-0.8,1.1-1.8,1.9-3.2,2.4s-2.7,0.7-4.3,0.7c-0.5,0-0.8,0-1,0c-0.2,0-0.5,0-0.8,0v6.3c0,0.1-0.1,0.2-0.2,0.2c0,0,0,0-0.1,0H6.2
			C6,29.1,6,29,6,28.8z M10.2,12.4v6.5c0.2,0,0.6,0,0.8,0h1c0.8,0,1.5-0.1,2.3-0.3c0.6-0.2,1.1-0.6,1.6-1s0.6-1.1,0.6-2
			c0-0.6-0.1-1.3-0.5-1.7c-0.3-0.5-0.8-0.9-1.4-1.1c-0.7-0.3-1.5-0.5-2.3-0.3c-0.5,0-0.9,0-1.4,0C10.6,12.3,10.3,12.4,10.2,12.4
			L10.2,12.4z"/>
		<path class="st1" d="M32.7,17.7c-0.6-0.3-1.3-0.6-1.8-0.7c-0.7-0.1-1.5-0.2-2.2-0.2c-0.3,0-0.8,0-1.1,0.1
			c-0.2,0.1-0.5,0.2-0.6,0.3c-0.1,0.2-0.2,0.3-0.2,0.6s0.1,0.3,0.2,0.5c0.2,0.2,0.5,0.3,0.7,0.6c0.5,0.2,0.9,0.5,1.4,0.7
			c1,0.3,2,0.8,3,1.4c0.7,0.5,1.1,0.9,1.6,1.6c0.3,0.6,0.5,1.3,0.5,2c0,0.9-0.2,1.8-0.8,2.6c-0.6,0.8-1.3,1.4-2.2,1.7
			c-0.9,0.5-2.2,0.6-3.5,0.6c-0.9,0-1.8-0.1-2.6-0.2c-0.7-0.1-1.4-0.3-1.9-0.6c-0.1-0.1-0.2-0.2-0.2-0.3v-3.4c0-0.1,0-0.1,0.1-0.2
			c0.1,0,0.1,0,0.2,0c0.8,0.5,1.6,0.8,2.4,0.9c0.7,0.2,1.5,0.3,2.3,0.3c0.7,0,1.3-0.1,1.6-0.2c0.3-0.1,0.6-0.5,0.6-0.8
			c0-0.2-0.1-0.6-0.5-0.8c-0.3-0.2-0.9-0.6-1.9-0.9c-1-0.3-1.9-0.8-2.7-1.4c-0.6-0.5-1.1-1-1.5-1.7c-0.3-0.6-0.5-1.3-0.5-1.9
			c0-0.8,0.2-1.6,0.7-2.4c0.5-0.8,1.3-1.4,2-1.8c0.9-0.5,2-0.7,3.4-0.7c0.8,0,1.6,0.1,2.4,0.2c0.6,0.1,1.1,0.2,1.7,0.5
			c0.1,0,0.1,0.1,0.2,0.2c0,0.1,0,0.1,0,0.2v3.2c0,0.1,0,0.1-0.1,0.2C33,17.7,32.8,17.7,32.7,17.7z"/>
	</g>
</g>
</svg>
