<?xml version="1.0" encoding="UTF-8"?>
<svg id="Layer_1" data-name="Layer 1" xmlns="http://www.w3.org/2000/svg" version="1.1" viewBox="0 0 40 40">
  <defs>
    <style>
      .cls-1 {
        fill: #000;
      }

      .cls-1, .cls-2 {
        stroke-width: 0px;
      }

      .cls-2 {
        fill: #fff;
      }
    </style>
  </defs>
  <path class="cls-1" d="M36.2,40H3.8c-2.1,0-3.8-1.7-3.8-3.8V3.8C0,1.7,1.7,0,3.8,0h32.4c2.1,0,3.8,1.7,3.8,3.8v32.4c0,2.1-1.7,3.8-3.8,3.8Z"/>
  <g id="Outlined_Mnemonics_Logos" data-name="Outlined Mnemonics Logos">
    <g id="Ps">
      <path class="cls-2" d="M6,28.8V8.9c0-.1,0-.2.2-.2h6.1c1.6,0,3,.2,4,.6s1.8.9,2.6,1.6c.6.6,1.1,1.4,1.4,2.2s.5,1.7.5,2.5c0,1.7-.3,3.1-1.1,4.1-.8,1.1-1.8,1.9-3.2,2.4s-2.7.7-4.3.7h-1.8v6.3c0,.1-.1.2-.2.2h-4c-.2-.2-.2-.3-.2-.5ZM10.2,12.4v6.5h1.8c.8,0,1.5-.1,2.3-.3.6-.2,1.1-.6,1.6-1,.5-.4.6-1.1.6-2s-.1-1.3-.5-1.7c-.3-.5-.8-.9-1.4-1.1-.7-.3-1.5-.5-2.3-.3h-1.4c-.3-.2-.6-.1-.7-.1h0Z"/>
      <path class="cls-2" d="M32.7,17.7c-.6-.3-1.3-.6-1.8-.7-.7-.1-1.5-.2-2.2-.2s-.8,0-1.1.1c-.2.1-.5.2-.6.3-.1.2-.2.3-.2.6s.1.3.2.5c.2.2.5.3.7.6.5.2.9.5,1.4.7,1,.3,2,.8,3,1.4.7.5,1.1.9,1.6,1.6.3.6.5,1.3.5,2s-.2,1.8-.8,2.6c-.6.8-1.3,1.4-2.2,1.7-.9.5-2.2.6-3.5.6s-1.8-.1-2.6-.2c-.7-.1-1.4-.3-1.9-.6-.1-.1-.2-.2-.2-.3v-3.4q0-.1.1-.2h.2c.8.5,1.6.8,2.4.9.7.2,1.5.3,2.3.3s1.3-.1,1.6-.2c.3-.1.6-.5.6-.8s-.1-.6-.5-.8c-.3-.2-.9-.6-1.9-.9s-1.9-.8-2.7-1.4c-.6-.5-1.1-1-1.5-1.7-.3-.6-.5-1.3-.5-1.9s.2-1.6.7-2.4c.5-.8,1.3-1.4,2-1.8.9-.5,2-.7,3.4-.7s1.6.1,2.4.2c.6.1,1.1.2,1.7.5,0,0,0,.1.2.2v3.4q0,.1,0,.2c-.4-.2-.6-.2-.7-.2Z"/>
    </g>
  </g>
</svg>