<?xml version="1.0" encoding="utf-8"?>
<!-- Generator: Adobe Illustrator 28.1.0, SVG Export Plug-In . SVG Version: 6.00 Build 0)  -->
<svg version="1.1" id="Layer_1" xmlns="http://www.w3.org/2000/svg" xmlns:xlink="http://www.w3.org/1999/xlink" x="0px" y="0px"
	 viewBox="0 0 40 40" style="enable-background:new 0 0 40 40;" xml:space="preserve">
<style type="text/css">
	.st0{fill:#FF6C37;}
	.st1{fill:#FFFFFF;}
</style>
<path d="M36.2,40H3.8C1.7,40,0,38.3,0,36.2V3.8C0,1.7,1.7,0,3.8,0h32.4C38.3,0,40,1.7,40,3.8v32.4C40,38.3,38.3,40,36.2,40z"/>
<g>
	<path class="st0" d="M32.5,10.3c-5.3-6.9-15.3-8.2-22.2-2.9S2.1,22.8,7.5,29.7s15.3,8.2,22.2,2.9c0,0,0,0,0,0
		C36.6,27.2,37.9,17.2,32.5,10.3L32.5,10.3z"/>
	<path class="st1" d="M25.3,14.3L18.7,21L16.8,19C23.3,12.5,24,13.1,25.3,14.3L25.3,14.3z"/>
	<path class="st0" d="M18.7,21.2c-0.1,0-0.1,0-0.2-0.1l-1.9-1.9c-0.1-0.1-0.1-0.2,0-0.3c6.5-6.5,7.4-6.2,8.9-4.8
		c0.1,0,0.1,0.1,0.1,0.2c0,0.1,0,0.1-0.1,0.2l-6.7,6.7C18.8,21.1,18.7,21.2,18.7,21.2L18.7,21.2z M17.1,19l1.6,1.6l6.3-6.3
		c-0.5-0.6-1.3-0.7-1.9-0.3C22,14.5,20.1,16,17.1,19z"/>
	<path class="st1" d="M20.6,22.8L18.8,21l6.7-6.6C27.2,16.1,24.6,19.1,20.6,22.8L20.6,22.8z"/>
	<path class="st0" d="M20.6,23.1c-0.1,0-0.1,0-0.2-0.1l-1.9-1.8c0-0.1,0-0.1,0-0.2c0-0.1,0-0.1,0-0.2l6.7-6.7c0.1-0.1,0.2-0.1,0.3,0
		c0.4,0.4,0.7,1,0.7,1.6c0,1.8-2,4-5.5,7.3C20.7,23,20.6,23.1,20.6,23.1L20.6,23.1z M19.1,21l1.5,1.5c2.6-2.5,5.2-5.1,5.2-6.8
		c0-0.4-0.1-0.7-0.3-1L19.1,21z"/>
	<path class="st1" d="M16.8,19.1l1.3,1.3c0,0,0,0.1,0,0.1c0,0,0,0,0,0l-2.8,0.6c-0.1,0-0.3-0.1-0.3-0.2c0-0.1,0-0.2,0.1-0.2
		L16.8,19.1C16.8,19.1,16.8,19.1,16.8,19.1L16.8,19.1z"/>
	<path class="st0" d="M15.3,21.4c-0.2,0-0.3-0.1-0.4-0.3c-0.1-0.2-0.1-0.4,0.1-0.6l1.6-1.6c0.1-0.1,0.3-0.1,0.4,0l1.3,1.3
		c0.1,0.1,0.1,0.2,0.1,0.3s-0.1,0.2-0.2,0.2L15.3,21.4L15.3,21.4z M16.8,19.4l-1.5,1.5l2.5-0.5L16.8,19.4z"/>
	<path class="st1" d="M28.9,10.5c-1-0.9-2.5-1-3.5-0.1c-1,0.9-1.2,2.4-0.4,3.4c0.8,1.1,2.2,1.4,3.4,0.7l-1.8-1.8L28.9,10.5z"/>
	<path class="st0" d="M27.1,15.2c-1.1,0-2.1-0.7-2.6-1.7c-0.4-1-0.2-2.2,0.6-3c1.1-1.1,2.9-1.1,4,0c0.1,0,0.1,0.1,0.1,0.2
		c0,0.1,0,0.1-0.1,0.2l-2.1,2l1.6,1.6c0.1,0.1,0.1,0.1,0.1,0.2c0,0.1,0,0.1-0.1,0.2C28.1,15,27.6,15.2,27.1,15.2L27.1,15.2z
		 M27.1,10.1c-0.9,0-1.8,0.6-2.1,1.4c-0.4,0.9-0.2,1.9,0.5,2.5c0.7,0.7,1.7,0.9,2.6,0.5L26.5,13c-0.1-0.1-0.1-0.2,0-0.3c0,0,0,0,0,0
		l2.1-2.1C28.1,10.2,27.6,10.1,27.1,10.1L27.1,10.1z"/>
	<path class="st1" d="M28.9,10.6l-2.3,2.2l1.8,1.8c0.2-0.1,0.3-0.2,0.5-0.4C29.9,13.2,29.9,11.6,28.9,10.6L28.9,10.6z"/>
	<path class="st0" d="M28.4,14.8c-0.1,0-0.1,0-0.2-0.1L26.5,13c-0.1-0.1-0.1-0.2,0-0.3c0,0,0,0,0,0l2.2-2.2c0.1-0.1,0.2-0.1,0.3-0.1
		c0,0,0,0,0.1,0.1c1.1,1.1,1.1,2.8,0,3.9c0,0,0,0,0,0c-0.2,0.2-0.3,0.3-0.5,0.4C28.5,14.8,28.5,14.8,28.4,14.8L28.4,14.8z M27,12.8
		l1.5,1.5c0.1-0.1,0.2-0.2,0.3-0.2c0.4-0.4,0.7-1,0.7-1.6c0-0.6-0.2-1.1-0.6-1.5L27,12.8z"/>
	<path class="st1" d="M25.6,14.5c-0.4-0.3-0.9-0.3-1.3,0l-6,6l1,1l6.3-5.5C26,15.6,26,15,25.6,14.5C25.6,14.6,25.6,14.5,25.6,14.5
		L25.6,14.5z"/>
	<path class="st0" d="M19.3,21.7c-0.1,0-0.1,0-0.2-0.1l-1-1c-0.1-0.1-0.1-0.2,0-0.3l6-6c0.5-0.5,1.2-0.5,1.7,0
		c0.2,0.2,0.4,0.6,0.4,0.9c0,0.3-0.2,0.6-0.4,0.9l-6.3,5.5C19.4,21.7,19.3,21.7,19.3,21.7L19.3,21.7z M18.6,20.5l0.7,0.7l6.2-5.4
		c0.2-0.1,0.2-0.3,0.3-0.5c0-0.2-0.1-0.4-0.2-0.5c-0.3-0.3-0.8-0.3-1,0L18.6,20.5z"/>
	<path class="st1" d="M13.7,27.3c0,0,0,0.1,0,0.2l0.3,1.1c0,0.1,0,0.3-0.2,0.3c-0.1,0.1-0.3,0.1-0.4,0l-1.8-1.7l5.6-5.7h2l1.3,1.3
		C18.5,24.6,16.2,26.1,13.7,27.3L13.7,27.3z"/>
	<path class="st0" d="M13.6,29.2c-0.1,0-0.3-0.1-0.4-0.2l-1.7-1.7c-0.1-0.1-0.1-0.2,0-0.3c0,0,0,0,0,0l5.7-5.7c0,0,0.1-0.1,0.1-0.1
		h2c0.1,0,0.1,0,0.2,0l1.3,1.3c0.1,0,0.1,0.1,0.1,0.2c0,0.1,0,0.1-0.1,0.2L20.6,23c-2.1,1.7-4.3,3.2-6.8,4.3l0.3,1.1
		c0.1,0.3-0.1,0.6-0.4,0.7c0,0-0.1,0-0.1,0L13.6,29.2z M12,27.2l1.6,1.6c0,0,0.1,0,0.1,0c0,0,0-0.1,0-0.1l-0.3-1.1
		c0-0.2,0-0.3,0.2-0.4c2.4-1.1,4.6-2.6,6.6-4.2l-1.1-1.1h-1.8L12,27.2z"/>
	<path class="st1" d="M10.2,28.5l1.3-1.3l2,2L10.4,29c-0.1,0-0.3-0.1-0.2-0.3C10.1,28.6,10.2,28.6,10.2,28.5L10.2,28.5z"/>
	<path class="st0" d="M13.6,29.4l-3.2-0.2c-0.2,0-0.4-0.1-0.4-0.3c-0.1-0.2,0-0.4,0.1-0.5l1.3-1.3c0.1-0.1,0.2-0.1,0.3,0l2,2
		c0.1,0.1,0.1,0.2,0,0.3C13.7,29.4,13.7,29.4,13.6,29.4L13.6,29.4z M10.4,28.7l2.6,0.2l-1.5-1.4L10.4,28.7z"/>
	<path class="st1" d="M19.4,21.6l-2.7,0.4l1.5-1.5L19.4,21.6z"/>
	<path class="st0" d="M16.7,22.3c-0.1,0-0.2,0-0.2-0.1c-0.1-0.1-0.1-0.2,0-0.3l1.5-1.5c0.1-0.1,0.2-0.1,0.3,0l1.1,1.1
		c0,0.1,0,0.2,0,0.2c0,0.1-0.1,0.2-0.2,0.2L16.7,22.3L16.7,22.3z M18.3,20.9l-0.9,0.9l1.5-0.2L18.3,20.9z"/>
	<path class="st1" d="M19.4,21.6l-1.9,0.2c-0.1,0-0.3-0.1-0.3-0.2c0-0.1,0-0.2,0.1-0.2l1-1L19.4,21.6z"/>
	<path class="st0" d="M17.5,22.1c-0.2,0-0.3-0.1-0.4-0.3c-0.1-0.2-0.1-0.4,0.1-0.6l1-1c0.1-0.1,0.2-0.1,0.3,0l1.1,1.1
		c0.1,0.1,0.1,0.2,0,0.3c0,0-0.1,0.1-0.2,0.1L17.5,22.1L17.5,22.1z M17.5,21.6l1.4-0.2l-0.6-0.6L17.5,21.6L17.5,21.6z M28.9,12.1
		C28.9,12,28.8,12,28.7,12c0,0-0.1,0.1-0.1,0.1c0,0,0,0.1,0,0.1c0.1,0.2,0.1,0.4-0.1,0.6c0,0-0.1,0.1,0,0.1c0,0,0,0.1,0,0.1
		c0,0,0.1,0,0.1,0c0.1,0,0.1,0,0.2-0.1C29,12.8,29.1,12.4,28.9,12.1L28.9,12.1z"/>
</g>
</svg>
