<?xml version="1.0" encoding="utf-8"?>
<!-- Generator: Adobe Illustrator 28.0.0, SVG Export Plug-In . SVG Version: 6.00 Build 0)  -->
<svg version="1.1" id="Layer_1" xmlns="http://www.w3.org/2000/svg" xmlns:xlink="http://www.w3.org/1999/xlink" x="0px" y="0px"
	 viewBox="0 0 40 40" style="enable-background:new 0 0 40 40;" xml:space="preserve">
<style type="text/css">
	.st0{stroke:#000000;stroke-width:3.1668;}
	.st1{fill:#336791;}
	.st2{fill:none;stroke:#FFFFFF;stroke-width:1.0556;stroke-linecap:round;stroke-linejoin:round;}
	.st3{fill:none;stroke:#FFFFFF;stroke-width:1.0556;stroke-linecap:round;stroke-linejoin:bevel;}
	.st4{fill:#FFFFFF;stroke:#FFFFFF;stroke-width:0.3519;}
	.st5{fill:#FFFFFF;stroke:#FFFFFF;stroke-width:0.1759;}
	.st6{fill:none;stroke:#FFFFFF;stroke-width:0.2541;stroke-linecap:round;stroke-linejoin:round;}
</style>
<path d="M36.2,40H3.8C1.7,40,0,38.3,0,36.2V3.8C0,1.7,1.7,0,3.8,0h32.4C38.3,0,40,1.7,40,3.8v32.4C40,38.3,38.3,40,36.2,40z"/>
<g id="orginal">
</g>
<g id="Layer_x0020_3">
	<path class="st0" d="M29.4,28.9c0.2-2,0.2-2.3,1.7-2l0.4,0c1.1,0.1,2.6-0.2,3.5-0.6c1.9-0.9,3-2.3,1.1-2c-4.3,0.9-4.6-0.6-4.6-0.6
		c4.5-6.7,6.4-15.1,4.8-17.2c-4.4-5.7-12.1-3-12.2-2.9l0,0c-0.8-0.2-1.8-0.3-2.8-0.3c-1.9,0-3.4,0.5-4.5,1.3c0,0-13.7-5.6-13,7.1
		c0.1,2.7,3.9,20.5,8.3,15.1c1.6-2,3.2-3.6,3.2-3.6C16,23.9,17,24.1,18,24L18,24c0,0.2,0,0.5,0,0.8c-1.1,1.3-0.8,1.5-3.1,2
		c-2.3,0.5-1,1.3-0.1,1.6c1.1,0.3,3.6,0.7,5.3-1.7l-0.1,0.3c0.5,0.4,0.4,2.6,0.5,4.2c0.1,1.6,0.2,3.1,0.5,4c0.3,0.9,0.7,3.1,3.7,2.5
		C27.3,36.9,29.3,36.2,29.4,28.9"/>
	<path class="st1" d="M36.1,24.4c-4.3,0.9-4.6-0.6-4.6-0.6c4.5-6.7,6.4-15.1,4.8-17.2c-4.4-5.7-12.1-3-12.2-2.9l0,0
		c-0.8-0.2-1.8-0.3-2.8-0.3c-1.9,0-3.4,0.5-4.5,1.3c0,0-13.7-5.6-13,7.1c0.1,2.7,3.9,20.5,8.3,15.1c1.6-2,3.2-3.6,3.2-3.6
		C16,23.9,17,24.1,18,24L18,24c0,0.2,0,0.5,0,0.8c-1.1,1.3-0.8,1.5-3.1,2c-2.3,0.5-1,1.3-0.1,1.6c1.1,0.3,3.6,0.7,5.3-1.7l-0.1,0.3
		c0.5,0.4,0.8,2.3,0.7,4.1c-0.1,1.8-0.1,3,0.3,4c0.4,1,0.7,3.1,3.7,2.5c2.5-0.5,3.8-1.9,4-4.3c0.1-1.7,0.4-1.4,0.4-2.9l0.2-0.7
		c0.3-2.3,0-3,1.6-2.6l0.4,0c1.1,0.1,2.6-0.2,3.5-0.6C36.9,25.5,38,24,36.1,24.4L36.1,24.4z"/>
	<path class="st2" d="M20.3,25.7c-0.1,4.2,0,8.4,0.4,9.4c0.4,1,1.3,3,4.3,2.4c2.5-0.5,3.4-1.6,3.8-3.9c0.3-1.7,0.9-6.4,0.9-7.4"/>
	<path class="st2" d="M16.7,4.7c0,0-13.7-5.6-13,7.1c0.1,2.7,3.9,20.5,8.3,15.1c1.6-2,3.1-3.5,3.1-3.5"/>
	<path class="st2" d="M24.1,3.7c-0.5,0.1,7.6-3,12.2,2.9c1.6,2.1-0.3,10.5-4.8,17.2"/>
	<path class="st3" d="M31.6,23.8c0,0,0.3,1.4,4.6,0.6c1.9-0.4,0.7,1.1-1.1,2c-1.6,0.7-5,0.9-5.1-0.1C29.7,23.7,31.7,24.4,31.6,23.8
		c-0.1-0.6-1-1.1-1.6-2.6c-0.5-1.2-7-10.7,1.8-9.3c0.3-0.1-2.3-8.4-10.5-8.5c-8.2-0.1-8,10.1-8,10.1"/>
	<path class="st2" d="M18,24.7c-1.1,1.3-0.8,1.5-3.1,2c-2.3,0.5-1,1.3-0.1,1.6c1.1,0.3,3.6,0.7,5.3-1.7c0.5-0.7,0-1.9-0.7-2.2
		C19.1,24.2,18.6,24,18,24.7L18,24.7z"/>
	<path class="st2" d="M18,24.7c-0.1-0.8,0.2-1.7,0.6-2.7c0.6-1.6,1.9-3.2,0.9-8.2c-0.8-3.7-6.2-0.8-6.2-0.3c0,0.5,0.2,2.6-0.1,5
		c-0.4,3.1,2,5.8,4.8,5.5"/>
	<path class="st4" d="M16.7,13.5c0,0.2,0.3,0.6,0.8,0.7c0.4,0.1,0.8-0.3,0.8-0.5c0-0.2-0.3-0.4-0.8-0.4
		C17.1,13.2,16.7,13.3,16.7,13.5L16.7,13.5z"/>
	<path class="st5" d="M30.2,13.1c0,0.2-0.3,0.6-0.8,0.7c-0.4,0.1-0.8-0.3-0.8-0.5c0-0.2,0.3-0.4,0.8-0.4
		C29.8,12.8,30.2,12.9,30.2,13.1L30.2,13.1z"/>
	<path class="st2" d="M31.8,11.9c0.1,1.4-0.3,2.3-0.3,3.7c-0.1,2.1,1,4.5-0.6,6.9"/>
	<path class="st6" d="M2.1,6.6"/>
</g>
</svg>
