<?xml version="1.0" encoding="UTF-8"?>
<svg id="Layer_1" data-name="Layer 1" xmlns="http://www.w3.org/2000/svg" version="1.1" viewBox="0 0 40 40">
  <defs>
    <style>
      .cls-1 {
        stroke: #000;
        stroke-width: 3.2px;
      }

      .cls-1, .cls-2 {
        fill: #000;
      }

      .cls-3 {
        stroke-linejoin: bevel;
      }

      .cls-3, .cls-4 {
        stroke-width: 1.1px;
      }

      .cls-3, .cls-4, .cls-5 {
        fill: none;
        stroke-linecap: round;
      }

      .cls-3, .cls-4, .cls-5, .cls-6, .cls-7 {
        stroke: #fff;
      }

      .cls-4, .cls-5 {
        stroke-linejoin: round;
      }

      .cls-8 {
        fill: #999;
      }

      .cls-8, .cls-2 {
        stroke-width: 0px;
      }

      .cls-5 {
        stroke-width: .3px;
      }

      .cls-6 {
        stroke-width: .2px;
      }

      .cls-6, .cls-7 {
        fill: #fff;
      }

      .cls-7 {
        stroke-width: .4px;
      }
    </style>
  </defs>
  <path class="cls-2" d="M36.2,40H3.8c-2.1,0-3.8-1.7-3.8-3.8V3.8C0,1.7,1.7,0,3.8,0h32.4c2.1,0,3.8,1.7,3.8,3.8v32.4c0,2.1-1.7,3.8-3.8,3.8Z"/>
  <g id="Layer_3">
    <path class="cls-1" d="M29.4,28.9c.2-2,.2-2.3,1.7-2h.4c1.1.1,2.6-.2,3.5-.6,1.9-.9,3-2.3,1.1-2-4.3.9-4.6-.6-4.6-.6,4.5-6.7,6.4-15.1,4.8-17.2-4.4-5.7-12.1-3-12.2-2.9h0c-.8-.2-1.8-.3-2.8-.3-1.9,0-3.4.5-4.5,1.3,0,0-13.7-5.6-13,7.1,0,2.7,3.9,20.5,8.3,15.1,1.6-2,3.2-3.6,3.2-3.6.7.7,1.7.9,2.7.8h0v.8c-1.1,1.3-.8,1.5-3.1,2-2.3.5-1,1.3-.1,1.6,1.1.3,3.6.7,5.3-1.7v.3c.4.4.3,2.6.4,4.2s.2,3.1.5,4,.7,3.1,3.7,2.5c2.6-.8,4.6-1.5,4.7-8.8"/>
    <path class="cls-8" d="M36.1,24.4c-4.3.9-4.6-.6-4.6-.6,4.5-6.7,6.4-15.1,4.8-17.2-4.4-5.7-12.1-3-12.2-2.9h0c-.8-.2-1.8-.3-2.8-.3-1.9,0-3.4.5-4.5,1.3,0,0-13.7-5.6-13,7.1,0,2.7,3.9,20.5,8.3,15.1,1.6-2,3.2-3.6,3.2-3.6.7.6,1.7.8,2.7.7h0v.8c-1.1,1.3-.8,1.5-3.1,2-2.3.5-1,1.3-.1,1.6,1.1.3,3.6.7,5.3-1.7v.3c.4.4.7,2.3.6,4.1-.1,1.8-.1,3,.3,4s.7,3.1,3.7,2.5c2.5-.5,3.8-1.9,4-4.3.1-1.7.4-1.4.4-2.9l.2-.7c.3-2.3,0-3,1.6-2.6h.4c1.1.1,2.6-.2,3.5-.6,2.1-1,3.2-2.5,1.3-2.1h0Z"/>
    <path class="cls-4" d="M20.3,25.7c-.1,4.2,0,8.4.4,9.4s1.3,3,4.3,2.4c2.5-.5,3.4-1.6,3.8-3.9.3-1.7.9-6.4.9-7.4"/>
    <path class="cls-4" d="M16.7,4.7S3-.9,3.7,11.8c0,2.7,3.9,20.5,8.3,15.1,1.6-2,3.1-3.5,3.1-3.5"/>
    <path class="cls-4" d="M24.1,3.7c-.5,0,7.6-3,12.2,2.9,1.6,2.1-.3,10.5-4.8,17.2"/>
    <path class="cls-3" d="M31.6,23.8s.3,1.4,4.6.6c1.9-.4.7,1.1-1.1,2-1.6.7-5,.9-5.1-.1-.3-2.6,1.7-1.9,1.6-2.5s-1-1.1-1.6-2.6c-.5-1.2-7-10.7,1.8-9.3.3-.1-2.3-8.4-10.5-8.5-8.2,0-8,10.1-8,10.1"/>
    <path class="cls-4" d="M18,24.7c-1.1,1.3-.8,1.5-3.1,2-2.3.5-1,1.3-.1,1.6,1.1.3,3.6.7,5.3-1.7.5-.7,0-1.9-.7-2.2-.3-.2-.8-.4-1.4.3h0Z"/>
    <path class="cls-4" d="M18,24.7c-.1-.8.2-1.7.6-2.7.6-1.6,1.9-3.2.9-8.2-.8-3.7-6.2-.8-6.2-.3s.2,2.6-.1,5c-.4,3.1,2,5.8,4.8,5.5"/>
    <path class="cls-7" d="M16.7,13.5c0,.2.3.6.8.7.4.1.8-.3.8-.5s-.3-.4-.8-.4c-.4-.1-.8,0-.8.2h0Z"/>
    <path class="cls-6" d="M30.2,13.1c0,.2-.3.6-.8.7-.4.1-.8-.3-.8-.5s.3-.4.8-.4c.4-.1.8,0,.8.2h0Z"/>
    <path class="cls-4" d="M31.8,11.9c.1,1.4-.3,2.3-.3,3.7-.1,2.1,1,4.5-.6,6.9"/>
    <path class="cls-5" d="M2.1,6.6"/>
  </g>
</svg>