<?xml version="1.0" encoding="utf-8"?>
<!-- Generator: Adobe Illustrator 27.4.1, SVG Export Plug-In . SVG Version: 6.00 Build 0)  -->
<svg version="1.1" id="Layer_1" xmlns="http://www.w3.org/2000/svg" xmlns:xlink="http://www.w3.org/1999/xlink" x="0px" y="0px"
	 viewBox="0 0 40 40" style="enable-background:new 0 0 40 40;" xml:space="preserve">
<style type="text/css">
	.st0{fill:#00005B;}
	.st1{fill:#9999FF;}
</style>
<path class="st0" d="M36.2,40H3.8C1.7,40,0,38.3,0,36.2V3.8C0,1.7,1.7,0,3.8,0h32.4C38.3,0,40,1.7,40,3.8v32.4
	C40,38.3,38.3,40,36.2,40z"/>
<g id="vlpa">
	<g id="vlpe">
		<g id="vlpf">
			<path class="st1" d="M8.1,28.2V10.4c0-0.1,0-0.2,0.2-0.2c0.3,0,0.6,0,0.9,0c0.4,0,0.9,0,1.3,0s0.9,0,1.5,0c0.5,0,1,0,1.5,0
				c1.4,0,2.6,0.2,3.6,0.5c0.9,0.3,1.6,0.8,2.3,1.4c0.5,0.5,1,1.2,1.3,2c0.3,0.8,0.4,1.4,0.4,2.2c0,1.4-0.3,2.7-1,3.7
				c-0.7,0.9-1.6,1.7-2.8,2.1c-1.2,0.4-2.5,0.6-3.9,0.6c-0.4,0-0.7,0-0.9,0c-0.2,0-0.4,0-0.8,0v5.5c0,0.1-0.1,0.3-0.2,0.3h-0.1H8.3
				C8.1,28.4,8.1,28.3,8.1,28.2L8.1,28.2z M11.8,13.5v5.8c0.3,0,0.4,0,0.7,0h0.9c0.7,0,1.4-0.1,2-0.3c0.5-0.2,1-0.5,1.4-0.9
				c0.3-0.4,0.5-1,0.5-1.8c0-0.5-0.1-1.1-0.4-1.5c-0.3-0.4-0.7-0.8-1.2-1c-0.7-0.3-1.4-0.3-2-0.3c-0.4,0-0.9,0-1.2,0
				C12.2,13.5,11.9,13.5,11.8,13.5L11.8,13.5z"/>
			<path class="st1" d="M23.6,14.5h3.1c0.2,0,0.3,0.1,0.3,0.3c0.1,0.2,0.1,0.3,0.1,0.4s0.1,0.3,0.1,0.5c0,0.2,0,0.4,0,0.6
				c0.5-0.6,1.1-1.1,1.9-1.4c0.8-0.4,1.7-0.7,2.6-0.7c0.1,0,0.3,0.1,0.3,0.2v0.1v3.4c0,0.2-0.1,0.2-0.3,0.2c-0.6,0-1.3,0-1.9,0.2
				c-0.5,0.1-1,0.3-1.4,0.4c-0.3,0.2-0.7,0.3-0.9,0.7v8.8c0,0.2-0.1,0.3-0.3,0.3h-3.4c-0.2,0-0.3-0.1-0.3-0.2v-0.1v-9.6
				c0-0.4,0-0.9,0-1.3s0-0.9,0-1.4c0-0.4,0-0.8-0.1-1.2C23.4,14.6,23.5,14.5,23.6,14.5L23.6,14.5L23.6,14.5z"/>
		</g>
	</g>
</g>
</svg>
