<?xml version="1.0" encoding="UTF-8"?>
<svg id="Layer_1" data-name="Layer 1" xmlns="http://www.w3.org/2000/svg" version="1.1" viewBox="0 0 40 40">
  <defs>
    <style>
      .cls-1 {
        fill: #000;
      }

      .cls-1, .cls-2 {
        stroke-width: 0px;
      }

      .cls-2 {
        fill: #fff;
      }
    </style>
  </defs>
  <path class="cls-1" d="M36.2,40H3.8c-2.1,0-3.8-1.7-3.8-3.8V3.8C0,1.7,1.7,0,3.8,0h32.4c2.1,0,3.8,1.7,3.8,3.8v32.4c0,2.1-1.7,3.8-3.8,3.8Z"/>
  <g id="vlpa">
    <g id="vlpe">
      <g id="vlpf">
        <path class="cls-2" d="M8.1,28.2V10.4c0-.1,0-.2.2-.2h5.2c1.4,0,2.6.2,3.6.5.9.3,1.6.8,2.3,1.4.5.5,1,1.2,1.3,2s.4,1.4.4,2.2c0,1.4-.3,2.7-1,3.7-.7.9-1.6,1.7-2.8,2.1-1.2.4-2.5.6-3.9.6h-1.7v5.5c0,.1-.1.3-.2.3h-3.2c-.2-.1-.2-.2-.2-.3h0ZM11.8,13.5v5.8h1.6c.7,0,1.4-.1,2-.3.5-.2,1-.5,1.4-.9.3-.4.5-1,.5-1.8s-.1-1.1-.4-1.5-.7-.8-1.2-1c-.7-.3-1.4-.3-2-.3h-1.2c-.3,0-.6,0-.7,0h0Z"/>
        <path class="cls-2" d="M23.6,14.5h3.1c.2,0,.3.1.3.3.1.2.1.3.1.4s.1.3.1.5v.6c.5-.6,1.1-1.1,1.9-1.4.8-.4,1.7-.7,2.6-.7s.3.1.3.2h0v3.5c0,.2-.1.2-.3.2-.6,0-1.3,0-1.9.2-.5.1-1,.3-1.4.4-.3.2-.7.3-.9.7v8.8c0,.2-.1.3-.3.3h-3.4c-.2,0-.3-.1-.3-.2h0v-12.4c0-.4,0-.8-.1-1.2,0,0,0-.2.2-.2h0Z"/>
      </g>
    </g>
  </g>
</svg>