<?xml version="1.0" encoding="utf-8"?>
<!-- Generator: Adobe Illustrator 27.4.1, SVG Export Plug-In . SVG Version: 6.00 Build 0)  -->
<svg version="1.1" id="Layer_1" xmlns="http://www.w3.org/2000/svg" xmlns:xlink="http://www.w3.org/1999/xlink" x="0px" y="0px"
	 viewBox="0 0 40 40" style="enable-background:new 0 0 40 40;" xml:space="preserve">
<style type="text/css">
	.st0{fill:url(#SVGID_1_);}
	.st1{fill:url(#SVGID_00000008838264254453160360000003698302843929650875_);}
	.st2{fill:url(#SVGID_00000140712588457073085540000009785327045711311774_);}
	.st3{fill:url(#SVGID_00000096768394679220445380000000700849678726257083_);}
	.st4{fill:url(#SVGID_00000165940072371568670850000004771653521234824346_);}
	.st5{fill:#FFFFFF;}
</style>
<path d="M36.2,40H3.8C1.7,40,0,38.3,0,36.2V3.8C0,1.7,1.7,0,3.8,0h32.4C38.3,0,40,1.7,40,3.8v32.4C40,38.3,38.3,40,36.2,40z"/>
<g>
	<g>
		
			<linearGradient id="SVGID_1_" gradientUnits="userSpaceOnUse" x1="14.5251" y1="56.3793" x2="37.329" y2="56.3793" gradientTransform="matrix(1 0 0 -1 0 72)">
			<stop  offset="0" style="stop-color:#21D789"/>
			<stop  offset="1" style="stop-color:#07C3F2"/>
		</linearGradient>
		<polygon class="st0" points="27.7,6.9 38.9,16.2 34.9,24.4 28.1,22.5 22.3,22.5 		"/>
		
			<linearGradient id="SVGID_00000181073438837734690570000012914462047083379097_" gradientUnits="userSpaceOnUse" x1="-12.608" y1="38.8247" x2="34.3479" y2="73.4875" gradientTransform="matrix(1 0 0 -1 0 72)">
			<stop  offset="1.075269e-02" style="stop-color:#FCF84A"/>
			<stop  offset="0.1116" style="stop-color:#A7EB62"/>
			<stop  offset="0.2056" style="stop-color:#5FE077"/>
			<stop  offset="0.2727" style="stop-color:#32DA84"/>
			<stop  offset="0.3065" style="stop-color:#21D789"/>
			<stop  offset="0.5768" style="stop-color:#21D789"/>
			<stop  offset="0.5968" style="stop-color:#21D789"/>
			<stop  offset="0.686" style="stop-color:#20D68C"/>
			<stop  offset="0.7627" style="stop-color:#1ED497"/>
			<stop  offset="0.8348" style="stop-color:#19D1A9"/>
			<stop  offset="0.904" style="stop-color:#13CCC2"/>
			<stop  offset="0.9707" style="stop-color:#0BC6E1"/>
			<stop  offset="1" style="stop-color:#07C3F2"/>
		</linearGradient>
		<polygon style="fill:url(#SVGID_00000181073438837734690570000012914462047083379097_);" points="16.4,12.9 14.3,24.4 14,28.3 
			8.6,30.7 0.8,31.5 3.2,6.7 17.2,0.8 25.9,6.5 		"/>
		
			<linearGradient id="SVGID_00000183231213002887038460000016754812796448209326_" gradientUnits="userSpaceOnUse" x1="5.9506" y1="28.6503" x2="13.7823" y2="53.2255" gradientTransform="matrix(1 0 0 -1 0 72)">
			<stop  offset="0" style="stop-color:#21D789"/>
			<stop  offset="0.1638" style="stop-color:#24D788"/>
			<stop  offset="0.3047" style="stop-color:#2FD886"/>
			<stop  offset="0.4371" style="stop-color:#41DA82"/>
			<stop  offset="0.5644" style="stop-color:#5ADC7D"/>
			<stop  offset="0.6881" style="stop-color:#7AE077"/>
			<stop  offset="0.809" style="stop-color:#A1E36E"/>
			<stop  offset="0.9254" style="stop-color:#CFE865"/>
			<stop  offset="1" style="stop-color:#F1EB5E"/>
		</linearGradient>
		<polygon style="fill:url(#SVGID_00000183231213002887038460000016754812796448209326_);" points="16.4,12.9 17.5,35.1 14,39.2 
			0.8,31.5 11.6,15.4 		"/>
		
			<linearGradient id="SVGID_00000056388162950272626330000005177361982170143657_" gradientUnits="userSpaceOnUse" x1="16.3026" y1="50.0288" x2="33.3453" y2="72.9426" gradientTransform="matrix(1 0 0 -1 0 72)">
			<stop  offset="0" style="stop-color:#21D789"/>
			<stop  offset="6.081050e-02" style="stop-color:#24D788"/>
			<stop  offset="0.1131" style="stop-color:#2FD886"/>
			<stop  offset="0.1622" style="stop-color:#41DA82"/>
			<stop  offset="0.2094" style="stop-color:#5ADD7D"/>
			<stop  offset="0.2548" style="stop-color:#79E077"/>
			<stop  offset="0.2581" style="stop-color:#7CE076"/>
			<stop  offset="0.4986" style="stop-color:#8CE173"/>
			<stop  offset="0.9247" style="stop-color:#B2E56B"/>
		</linearGradient>
		<polygon style="fill:url(#SVGID_00000056388162950272626330000005177361982170143657_);" points="30.9,11.3 17.6,11.3 29.4,0.8 		
			"/>
		
			<linearGradient id="SVGID_00000121265623451019982570000015621824372905910956_" gradientUnits="userSpaceOnUse" x1="42.3831" y1="47.1005" x2="8.0435" y2="47.4185" gradientTransform="matrix(1 0 0 -1 0 72)">
			<stop  offset="0.3871" style="stop-color:#FCF84A"/>
			<stop  offset="0.5358" style="stop-color:#ECF451"/>
			<stop  offset="0.8259" style="stop-color:#C2E964"/>
			<stop  offset="0.9247" style="stop-color:#B2E56B"/>
		</linearGradient>
		<polygon style="fill:url(#SVGID_00000121265623451019982570000015621824372905910956_);" points="39.2,35.1 27.4,39.1 11.9,34.7 
			16.4,12.9 18.2,11.3 27.7,10.4 26.8,19.9 34.4,17 		"/>
	</g>
	<g>
		<rect x="8.2" y="8.2" width="23.6" height="23.6"/>
		<rect x="10.4" y="27.4" class="st5" width="8.9" height="1.5"/>
		<path class="st5" d="M10.3,11.3h4c2.4,0,3.8,1.4,3.8,3.4v0.1c0,2.2-1.8,3.4-3.9,3.4h-1.6v2.9h-2.1L10.3,11.3L10.3,11.3z
			 M14.2,16.2c1.1,0,1.7-0.7,1.7-1.5v-0.1c0-1-0.7-1.5-1.8-1.5h-1.6v3C12.5,16.2,14.2,16.2,14.2,16.2z"/>
		<path class="st5" d="M19,16.2L19,16.2c0-2.8,2.1-5.1,5.1-5.1c1.9,0,3,0.6,3.9,1.5l-1.4,1.6c-0.8-0.7-1.5-1.1-2.5-1.1
			c-1.6,0-2.8,1.4-2.8,3.1v-0.1c0,1.7,1.1,3.1,2.8,3.1c1.1,0,1.8-0.4,2.6-1.1l1.4,1.4c-1,1.1-2.1,1.8-4,1.8C21.1,21.3,19,19,19,16.2
			"/>
	</g>
</g>
</svg>
