<svg enable-background="new 0 0 40 40" viewBox="0 0 40 40" xmlns="http://www.w3.org/2000/svg" xmlns:xlink="http://www.w3.org/1999/xlink"><linearGradient id="a" gradientTransform="matrix(.5625 0 0 -.568 -543.9059 -492.9762)" gradientUnits="userSpaceOnUse" x1="1019.0085" x2="1005.5138" y1="-922.9401" y2="-903.8473"><stop offset="0" stop-color="#ffd43b"/><stop offset="1" stop-color="#ffe873"/></linearGradient><linearGradient id="b" gradientTransform="matrix(.5625 0 0 -.568 -543.9059 -492.9762)" gradientUnits="userSpaceOnUse" x1="966.5363" x2="1004.3262" y1="-870.8099" y2="-903.3231"><stop offset="0" stop-color="#5a9fd4"/><stop offset="1" stop-color="#306998"/></linearGradient><path d="m36.2 40h-32.4c-2.1 0-3.8-1.7-3.8-3.8v-32.4c0-2.1 1.7-3.8 3.8-3.8h32.4c2.1 0 3.8 1.7 3.8 3.8v32.4c0 2.1-1.7 3.8-3.8 3.8z"/><path d="m30.4 10.5v4.1c0 3.2-2.7 5.9-5.8 5.9h-9.2c-2.6 0-4.6 2.2-4.6 4.7v8.8c0 2.5 2.2 4 4.6 4.7 2.9.9 5.8 1 9.3 0 2.3-.7 4.6-2 4.6-4.7v-3.5h-9.3v-1.2h9.3 4.6c2.7 0 3.7-1.9 4.6-4.7 1-2.9.9-5.7 0-9.4-.6-2.7-2-4.7-4.6-4.7zm-5.2 22.3c1 0 1.7.8 1.7 1.7s-.8 1.7-1.7 1.7c-1 0-1.7-.8-1.7-1.7s.8-1.7 1.7-1.7z" fill="url(#a)"/><path d="m19.8.5c-1.6 0-3.1.1-4.4.4-3.9.7-4.6 2.1-4.6 4.8v3.5h9.2v1.2h-9.3-3.5c-2.7 0-5.1 1.6-5.8 4.7-.9 3.5-.9 5.8 0 9.4.6 2.7 2.3 4.7 4.9 4.7h3.2v-4.2c0-3.1 2.7-5.8 5.8-5.8h9.3c2.6 0 4.6-2.1 4.6-4.7v-8.8c0-2.5-2.1-4.4-4.6-4.8-1.6-.3-3.2-.4-4.8-.4zm-5.1 2.9c1 0 1.7.8 1.7 1.7s-.8 1.7-1.7 1.7c-1 0-1.7-.8-1.7-1.7s.8-1.7 1.7-1.7z" fill="url(#b)"/></svg>