<?xml version="1.0" encoding="utf-8"?>
<!-- Generator: Adobe Illustrator 27.4.1, SVG Export Plug-In . SVG Version: 6.00 Build 0)  -->
<svg version="1.1"
	 id="svg2" xmlns:dc="http://purl.org/dc/elements/1.1/" xmlns:inkscape="http://www.inkscape.org/namespaces/inkscape" xmlns:sodipodi="http://sodipodi.sourceforge.net/DTD/sodipodi-0.dtd" xmlns:rdf="http://www.w3.org/1999/02/22-rdf-syntax-ns#" xmlns:svg="http://www.w3.org/2000/svg" xmlns:cc="http://creativecommons.org/ns#"
	 xmlns="http://www.w3.org/2000/svg" xmlns:xlink="http://www.w3.org/1999/xlink" x="0px" y="0px" viewBox="0 0 40 40"
	 style="enable-background:new 0 0 40 40;" xml:space="preserve">
<style type="text/css">
	.st0{fill:url(#path1950_00000031911154337980081960000014937850268195182507_);}
	.st1{fill:url(#path1948_00000032621794066502507700000005281493296260844465_);}
</style>
<sodipodi:namedview  bordercolor="#666666" borderopacity="1.0" gridtolerance="10.0" guidetolerance="10.0" height="40mm" id="base" inkscape:current-layer="svg2" inkscape:cx="91.558698" inkscape:cy="47.9926" inkscape:deskcolor="#d1d1d1" inkscape:document-units="pt" inkscape:pagecheckerboard="0" inkscape:pageopacity="0.0" inkscape:pageshadow="2" inkscape:showpageshadow="2" inkscape:window-height="2080" inkscape:window-maximized="0" inkscape:window-width="1976" inkscape:window-x="1092" inkscape:window-y="72" inkscape:zoom="2.1461642" objecttolerance="10.0" pagecolor="#ffffff" showgrid="false" units="mm" width="210mm">
	</sodipodi:namedview>
<path d="M36.2,40H3.8C1.7,40,0,38.3,0,36.2V3.8C0,1.7,1.7,0,3.8,0h32.4C38.3,0,40,1.7,40,3.8v32.4C40,38.3,38.3,40,36.2,40z"/>
<g>
	
		<linearGradient id="path1950_00000183213378652147633740000001985834111598816172_" gradientUnits="userSpaceOnUse" x1="1019.0085" y1="-922.9401" x2="1005.5138" y2="-903.8473" gradientTransform="matrix(0.5625 0 0 -0.568 -543.9059 -492.9762)">
		<stop  offset="0" style="stop-color:#FFD43B"/>
		<stop  offset="1" style="stop-color:#FFE873"/>
	</linearGradient>
	<path id="path1950" style="fill:url(#path1950_00000183213378652147633740000001985834111598816172_);" d="M30.4,10.5v4.1
		c0,3.2-2.7,5.9-5.8,5.9h-9.2c-2.6,0-4.6,2.2-4.6,4.7V34c0,2.5,2.2,4,4.6,4.7c2.9,0.9,5.8,1,9.3,0c2.3-0.7,4.6-2,4.6-4.7v-3.5H20
		v-1.2h9.3h4.6c2.7,0,3.7-1.9,4.6-4.7c1-2.9,0.9-5.7,0-9.4c-0.6-2.7-2-4.7-4.6-4.7L30.4,10.5z M25.2,32.8c1,0,1.7,0.8,1.7,1.7
		s-0.8,1.7-1.7,1.7c-1,0-1.7-0.8-1.7-1.7S24.3,32.8,25.2,32.8z"/>
	
		<linearGradient id="path1948_00000160158503366012209270000005645108063974190771_" gradientUnits="userSpaceOnUse" x1="966.5363" y1="-870.8099" x2="1004.3262" y2="-903.3231" gradientTransform="matrix(0.5625 0 0 -0.568 -543.9059 -492.9762)">
		<stop  offset="0" style="stop-color:#5A9FD4"/>
		<stop  offset="1" style="stop-color:#306998"/>
	</linearGradient>
	<path id="path1948" style="fill:url(#path1948_00000160158503366012209270000005645108063974190771_);" d="M19.8,0.5
		c-1.6,0-3.1,0.1-4.4,0.4c-3.9,0.7-4.6,2.1-4.6,4.8v3.5H20v1.2h-9.3H7.2c-2.7,0-5.1,1.6-5.8,4.7c-0.9,3.5-0.9,5.8,0,9.4
		c0.6,2.7,2.3,4.7,4.9,4.7h3.2v-4.2c0-3.1,2.7-5.8,5.8-5.8h9.3c2.6,0,4.6-2.1,4.6-4.7V5.7c0-2.5-2.1-4.4-4.6-4.8
		C23,0.6,21.4,0.5,19.8,0.5z M14.7,3.4c1,0,1.7,0.8,1.7,1.7s-0.8,1.7-1.7,1.7c-1,0-1.7-0.8-1.7-1.7S13.8,3.4,14.7,3.4z"/>
</g>
</svg>
