<?xml version="1.0" encoding="utf-8"?>
<!-- Generator: Adobe Illustrator 27.0.1, SVG Export Plug-In . SVG Version: 6.00 Build 0)  -->
<svg version="1.1"
	 id="svg2" xmlns:rdf="http://www.w3.org/1999/02/22-rdf-syntax-ns#" xmlns:svg="http://www.w3.org/2000/svg" xmlns:cc="http://creativecommons.org/ns#" xmlns:dc="http://purl.org/dc/elements/1.1/" xmlns:inkscape="http://www.inkscape.org/namespaces/inkscape" xmlns:sodipodi="http://sodipodi.sourceforge.net/DTD/sodipodi-0.dtd"
	 xmlns="http://www.w3.org/2000/svg" xmlns:xlink="http://www.w3.org/1999/xlink" x="0px" y="0px" viewBox="0 0 92.1 101"
	 style="enable-background:new 0 0 92.1 101;" xml:space="preserve">
<style type="text/css">
	.st0{fill:url(#path1948_00000121986678763930271560000002482530109124689797_);}
	.st1{fill:url(#path1950_00000019663395590511383010000017855045743961392281_);}
</style>
<sodipodi:namedview  bordercolor="#666666" borderopacity="1.0" gridtolerance="10.0" guidetolerance="10.0" height="40mm" id="base" inkscape:current-layer="svg2" inkscape:cx="91.558698" inkscape:cy="47.9926" inkscape:deskcolor="#d1d1d1" inkscape:document-units="pt" inkscape:pagecheckerboard="0" inkscape:pageopacity="0.0" inkscape:pageshadow="2" inkscape:showpageshadow="2" inkscape:window-height="2080" inkscape:window-maximized="0" inkscape:window-width="1976" inkscape:window-x="1092" inkscape:window-y="72" inkscape:zoom="2.1461642" objecttolerance="10.0" pagecolor="#ffffff" showgrid="false" units="mm" width="210mm">
	</sodipodi:namedview>
<linearGradient id="path1948_00000030462490224266776700000012096337915111312820_" gradientUnits="userSpaceOnUse" x1="884.0545" y1="908.1724" x2="972.6496" y2="984.3966" gradientTransform="matrix(0.5625 0 0 0.568 -498.8434 -508.1442)">
	<stop  offset="0" style="stop-color:#5A9FD4"/>
	<stop  offset="1" style="stop-color:#306998"/>
</linearGradient>
<path id="path1948" style="fill:url(#path1948_00000030462490224266776700000012096337915111312820_);" d="M45.3,5.1
	C41.5,5.1,38,5.4,34.9,6C25.7,7.6,24,11,24,17.3v8.3h21.8v2.8H24h-8.2c-6.3,0-11.9,3.8-13.7,11.1c-2,8.3-2.1,13.5,0,22.1
	c1.5,6.4,5.3,11.1,11.5,11.1h7.5v-9.9c0-7.2,6.3-13.6,13.7-13.6h21.8c6.1,0,10.9-5,10.9-11.1V17.3c0-5.9-5-10.3-10.9-11.3
	C52.9,5.3,49,5.1,45.3,5.1z M33.5,11.8c2.3,0,4.1,1.9,4.1,4.1s-1.9,4.1-4.1,4.1c-2.3,0-4.1-1.9-4.1-4.1S31.2,11.8,33.5,11.8z"/>
<linearGradient id="path1950_00000176014763478334095830000011826343761644458395_" gradientUnits="userSpaceOnUse" x1="1006.9085" y1="1030.5327" x2="975.2712" y2="985.7714" gradientTransform="matrix(0.5625 0 0 0.568 -498.8434 -508.1442)">
	<stop  offset="0" style="stop-color:#FFD43B"/>
	<stop  offset="1" style="stop-color:#FFE873"/>
</linearGradient>
<path id="path1950" style="fill:url(#path1950_00000176014763478334095830000011826343761644458395_);" d="M70.2,28.4v9.7
	c0,7.5-6.3,13.8-13.7,13.8H34.9C28.9,51.9,24,57,24,63v20.7c0,5.9,5.1,9.3,10.9,11.1c6.9,2,13.5,2.4,21.8,0
	c5.5-1.6,10.9-4.8,10.9-11.1v-8.3H45.8v-2.8h21.8h10.9c6.3,0,8.7-4.4,10.9-11.1c2.3-6.8,2.2-13.4,0-22.1
	c-1.5-6.3-4.6-11.1-10.9-11.1L70.2,28.4z M58,80.9c2.3,0,4.1,1.9,4.1,4.1s-1.9,4.1-4.1,4.1c-2.3,0-4.1-1.9-4.1-4.1
	C53.9,82.8,55.8,80.9,58,80.9z"/>
</svg>
