<?xml version="1.0" encoding="UTF-8"?>
<svg id="Layer_1" data-name="Layer 1" xmlns="http://www.w3.org/2000/svg" version="1.1" viewBox="0 0 40 40">
  <defs>
    <style>
      .cls-1 {
        fill: #bcbec0;
      }

      .cls-1, .cls-2, .cls-3 {
        stroke-width: 0px;
      }

      .cls-2 {
        fill: #000;
      }

      .cls-3 {
        fill: #fff;
      }
    </style>
  </defs>
  <path class="cls-2" d="M36.2,40H3.8C1.7,40,0,38.3,0,36.2V3.8C0,1.7,1.7,0,3.8,0h32.4C38.3,0,40,1.7,40,3.8v32.4c0,2.1-1.7,3.8-3.8,3.8Z"/>
  <path class="cls-1" d="M30.4,10.5v4.1c0,3.2-2.7,5.9-5.8,5.9h-9.2c-2.6,0-4.6,2.2-4.6,4.7v8.8c0,2.5,2.2,4,4.6,4.7,2.9.9,5.8,1,9.3,0,2.3-.7,4.6-2,4.6-4.7v-3.5h-9.3v-1.2h13.9c2.7,0,3.7-1.9,4.6-4.7,1-2.9.9-5.7,0-9.4-.6-2.7-2-4.7-4.6-4.7h-3.5ZM25.2,32.8c1,0,1.7.8,1.7,1.7s-.8,1.7-1.7,1.7-1.7-.8-1.7-1.7.8-1.7,1.7-1.7Z"/>
  <path class="cls-3" d="M19.8.5c-1.6,0-3.1.1-4.4.4-3.9.7-4.6,2.1-4.6,4.8v3.5h9.2v1.2H7.2c-2.7,0-5.1,1.6-5.8,4.7-.9,3.5-.9,5.8,0,9.4.6,2.7,2.3,4.7,4.9,4.7h3.2v-4.2c0-3.1,2.7-5.8,5.8-5.8h9.3c2.6,0,4.6-2.1,4.6-4.7V5.7c0-2.5-2.1-4.4-4.6-4.8-1.6-.3-3.2-.4-4.8-.4ZM14.7,3.4c1,0,1.7.8,1.7,1.7s-.8,1.7-1.7,1.7-1.7-.8-1.7-1.7.8-1.7,1.7-1.7Z"/>
</svg>