<?xml version="1.0" encoding="utf-8"?>
<!-- Generator: Adobe Illustrator 27.4.1, SVG Export Plug-In . SVG Version: 6.00 Build 0)  -->
<svg version="1.1" id="Layer_1" xmlns="http://www.w3.org/2000/svg" xmlns:xlink="http://www.w3.org/1999/xlink" x="0px" y="0px"
	 viewBox="0 0 40 40" style="enable-background:new 0 0 40 40;" xml:space="preserve">
<style type="text/css">
	.st0{fill:#CF649A;}
</style>
<path d="M36.2,40H3.8C1.7,40,0,38.3,0,36.2V3.8C0,1.7,1.7,0,3.8,0h32.4C38.3,0,40,1.7,40,3.8v32.4C40,38.3,38.3,40,36.2,40z"/>
<path class="st0" d="M34.5,22c-1.4,0-2.5,0.3-3.5,0.8c-0.3-0.7-0.7-1.4-0.7-1.8c-0.1-0.5-0.1-0.8-0.1-1.6c0.1-0.6,0.4-1.6,0.4-1.7
	c0-0.1-0.1-0.4-0.8-0.4c-0.7,0-1.5,0.1-1.6,0.3c-0.1,0.2-0.2,0.6-0.3,1.2c-0.1,0.7-1.6,3.3-2.4,4.6c-0.3-0.5-0.5-1-0.5-1.4
	c-0.1-0.5-0.1-0.8-0.1-1.6c0.1-0.6,0.4-1.6,0.4-1.7c0-0.1-0.1-0.4-0.8-0.4c-0.7,0-1.5,0.1-1.6,0.3c-0.1,0.2-0.2,0.7-0.3,1.2
	c-0.2,0.4-2.1,4.7-2.5,5.8c-0.2,0.5-0.4,1.1-0.6,1.3c-0.2,0.3,0,0,0,0.1c-0.1,0.2-0.2,0.4-0.2,0.4l0,0c-0.1,0.2-0.2,0.4-0.3,0.4
	c0,0-0.1-0.5,0-1.2c0.3-1.5,1-3.8,1-3.8s0.1-0.4-0.4-0.6c-0.5-0.2-0.7,0.1-0.8,0.1l-0.1,0.1c0,0,0.6-2.5-1.2-2.5
	c-1.2,0-2.7,1.3-3.5,2.3c-0.5,0.3-1.5,0.8-2.7,1.5c-0.4,0.2-0.8,0.4-1.3,0.7l-0.1-0.1c-2.2-2.3-6.3-3.9-6-7.1
	c0.1-1.2,0.4-4.1,7.7-7.7c5.9-3,10.7-2.1,11.6-0.3c1.2,2.5-2.5,7.4-8.8,8.2c-2.3,0.3-3.6-0.6-3.9-1c-0.3-0.3-0.4-0.4-0.5-0.3
	c-0.2,0.1-0.1,0.4,0,0.6c0.2,0.5,1,1.4,2.2,1.8c1.2,0.4,3.9,0.5,7.3-0.7c3.7-1.5,6.7-5.5,5.8-8.9c-0.8-3.4-6.6-4.6-12-2.7
	c-3.2,1.2-6.7,3-9.2,5.3c-3,2.8-3.5,5.2-3.3,6.3c0.7,3.6,5.6,5.9,7.6,7.6c-0.1,0.1-0.2,0.1-0.3,0.1c-1,0.5-4.8,2.4-5.7,4.6
	c-1.1,2.3,0.2,4,1,4.3c2.5,0.7,5.2-0.5,6.6-2.7s1.3-4.8,0.6-6l0,0l0.7-0.4c0.5-0.3,1-0.5,1.5-0.8C12.2,25.1,12,26,11.9,27
	c-0.1,1.4,0.4,3.1,1.2,3.8c0.3,0.3,0.7,0.3,1,0.3c0.8,0,1.3-0.7,1.6-1.5c0.5-1.1,1-2.2,1-2.2s-0.5,3.2,1,3.2c0.5,0,1.2-0.7,1.4-1.2
	l0,0c0,0,0,0,0-0.1l0.1-0.1l0,0c0.2-0.4,0.7-1.3,1.5-2.8c1-1.9,1.9-4.3,1.9-4.3s0.1,0.6,0.4,1.6c0.2,0.5,0.5,1.2,0.8,1.8
	c-0.2,0.3-0.3,0.5-0.3,0.5l0,0c-0.2,0.2-0.4,0.5-0.6,0.7c-0.7,1-1.7,2-1.8,2.3c-0.1,0.3-0.1,0.6,0.2,0.8c0.2,0.1,0.5,0.2,1,0.1
	c0.7,0,1.2-0.2,1.5-0.3c0.4-0.1,0.8-0.3,1.3-0.6c0.7-0.5,1.3-1.4,1.2-2.4c0-0.6-0.2-1.2-0.4-1.7c0.1-0.1,0.1-0.2,0.2-0.3
	c1.2-1.8,2.1-3.7,2.1-3.7s0.1,0.6,0.4,1.6c0.1,0.5,0.4,1.1,0.7,1.6c-1.2,1-1.8,2-2.1,2.7c-0.4,1.3-0.1,1.9,0.5,2
	c0.3,0.1,0.7-0.1,1.1-0.2c0.4-0.1,0.8-0.3,1.3-0.6c0.7-0.5,1.5-1.4,1.5-2.4c0-0.5-0.1-1-0.3-1.4c1-0.4,2.2-0.6,3.8-0.4
	c3.4,0.4,4,2.5,3.9,3.4c-0.1,0.8-0.8,1.4-1.1,1.5s-0.3,0.2-0.3,0.3c0,0.2,0.1,0.1,0.3,0.1c0.3,0,1.8-0.7,1.8-2.3
	C40,24.3,38,21.9,34.5,22L34.5,22z M8.3,30.8c-1.2,1.2-2.8,1.7-3.4,1.3c-0.7-0.4-0.4-2.2,1-3.5c0.8-0.7,1.9-1.5,2.7-2
	c0.2-0.1,0.4-0.2,0.7-0.4h0.1c0.1,0,0.1-0.1,0.2-0.1C10,27.9,9.5,29.6,8.3,30.8L8.3,30.8z M16.5,25.2c-0.4,1-1.2,3.4-1.7,3.3
	c-0.4-0.1-0.6-2-0.1-3.8c0.3-1,1-2,1.4-2.4c0.6-0.6,1.3-1,1.5-0.6C17.8,21.9,16.8,24.7,16.5,25.2z M23.3,28.5
	c-0.2,0.1-0.3,0.1-0.4,0.1s0.1-0.1,0.1-0.1s0.8-1,1.2-1.4c0.2-0.2,0.4-0.5,0.6-0.8v0.1C24.9,27.5,23.8,28.2,23.3,28.5L23.3,28.5z
	 M28.5,27.2c-0.1-0.1-0.1-0.4,0.3-1.3c0.2-0.3,0.5-1,1.2-1.5c0.1,0.2,0.1,0.4,0.1,0.6C30,26.6,29.1,27,28.5,27.2z"/>
</svg>
