<?xml version="1.0" encoding="utf-8"?>
<!-- Generator: Adobe Illustrator 25.4.1, SVG Export Plug-In . SVG Version: 6.00 Build 0)  -->
<svg version="1.1" id="Layer_1" xmlns="http://www.w3.org/2000/svg" xmlns:xlink="http://www.w3.org/1999/xlink" x="0px" y="0px"
	 viewBox="0 0 40 40" style="enable-background:new 0 0 40 40;" xml:space="preserve">
<style type="text/css">
	.st0{fill:#CF649A;}
</style>
<path class="st0" d="M33.3,22.1c-1.3,0-2.4,0.3-3.3,0.8c-0.3-0.7-0.7-1.3-0.7-1.7c-0.1-0.5-0.1-0.8-0.1-1.5c0.1-0.6,0.4-1.5,0.4-1.6
	c0-0.1-0.1-0.4-0.8-0.4s-1.4,0.1-1.5,0.3s-0.2,0.6-0.3,1.1c-0.1,0.7-1.5,3.1-2.3,4.3c-0.3-0.5-0.5-0.9-0.5-1.3
	c-0.1-0.5-0.1-0.8-0.1-1.5c0.1-0.6,0.4-1.5,0.4-1.6c0-0.1-0.1-0.4-0.8-0.4c-0.7,0-1.4,0.1-1.5,0.3s-0.2,0.7-0.3,1.1
	c-0.2,0.4-2,4.4-2.4,5.5c-0.2,0.5-0.4,1-0.6,1.2c-0.2,0.3,0,0,0,0.1c-0.1,0.2-0.2,0.4-0.2,0.4v0c-0.1,0.2-0.2,0.4-0.3,0.4
	c0,0-0.1-0.5,0-1.1c0.3-1.4,0.9-3.6,0.9-3.6c0,0,0.1-0.4-0.4-0.6c-0.5-0.2-0.7,0.1-0.8,0.1c0,0-0.1,0.1-0.1,0.1s0.6-2.4-1.1-2.4
	c-1.1,0-2.5,1.2-3.3,2.2c-0.5,0.3-1.4,0.8-2.5,1.4c-0.4,0.2-0.8,0.4-1.2,0.7l-0.1-0.1c-2.1-2.2-5.9-3.7-5.7-6.7
	c0.1-1.1,0.4-3.9,7.3-7.3c5.6-2.8,10.1-2,10.9-0.3c1.1,2.4-2.4,7-8.3,7.7c-2.2,0.3-3.4-0.6-3.7-0.9c-0.3-0.3-0.4-0.4-0.5-0.3
	c-0.2,0.1-0.1,0.4,0,0.6c0.2,0.5,0.9,1.3,2.1,1.7c1.1,0.4,3.7,0.5,6.9-0.7c3.5-1.4,6.3-5.2,5.5-8.4c-0.8-3.2-6.2-4.3-11.3-2.5
	c-3,1.1-6.3,2.8-8.7,5c-2.8,2.6-3.3,4.9-3.1,5.9c0.7,3.4,5.3,5.6,7.2,7.2c-0.1,0.1-0.2,0.1-0.3,0.1c-0.9,0.5-4.5,2.3-5.4,4.3
	c-1,2.2,0.2,3.8,0.9,4.1c2.4,0.7,4.9-0.5,6.2-2.5c1.3-2,1.2-4.5,0.6-5.7l0,0l0.7-0.4c0.5-0.3,0.9-0.5,1.4-0.8
	c-0.2,0.6-0.4,1.4-0.5,2.4c-0.1,1.3,0.4,2.9,1.1,3.6c0.3,0.3,0.7,0.3,0.9,0.3c0.8,0,1.2-0.7,1.5-1.4c0.5-1,0.9-2.1,0.9-2.1
	s-0.5,3,0.9,3c0.5,0,1.1-0.7,1.3-1.1v0c0,0,0,0,0-0.1c0,0,0.1-0.1,0.1-0.1v0c0.2-0.4,0.7-1.2,1.4-2.6c0.9-1.8,1.8-4.1,1.8-4.1
	s0.1,0.6,0.4,1.5c0.2,0.5,0.5,1.1,0.8,1.7c-0.2,0.3-0.3,0.5-0.3,0.5l0,0c-0.2,0.2-0.4,0.5-0.6,0.7c-0.7,0.9-1.6,1.9-1.7,2.2
	c-0.1,0.3-0.1,0.6,0.2,0.8c0.2,0.1,0.5,0.2,0.9,0.1c0.7,0,1.1-0.2,1.4-0.3c0.4-0.1,0.8-0.3,1.2-0.6c0.7-0.5,1.2-1.3,1.1-2.3
	c0-0.6-0.2-1.1-0.4-1.6c0.1-0.1,0.1-0.2,0.2-0.3c1.1-1.7,2-3.5,2-3.5s0.1,0.6,0.4,1.5c0.1,0.5,0.4,1,0.7,1.5c-1.1,0.9-1.7,1.9-2,2.5
	c-0.4,1.2-0.1,1.8,0.5,1.9c0.3,0.1,0.7-0.1,1-0.2c0.4-0.1,0.8-0.3,1.2-0.6c0.7-0.5,1.4-1.3,1.4-2.3c0-0.5-0.1-0.9-0.3-1.3
	c0.9-0.4,2.1-0.6,3.6-0.4c3.2,0.4,3.8,2.4,3.7,3.2c-0.1,0.8-0.8,1.3-1,1.4c-0.2,0.1-0.3,0.2-0.3,0.3c0,0.2,0.1,0.1,0.3,0.1
	c0.3,0,1.7-0.7,1.7-2.2C38.5,24.2,36.6,22,33.3,22.1L33.3,22.1z M8.6,30.4C7.5,31.5,6,32,5.4,31.6c-0.7-0.4-0.4-2.1,0.9-3.3
	c0.8-0.7,1.8-1.4,2.5-1.9c0.2-0.1,0.4-0.2,0.7-0.4c0,0,0.1,0,0.1,0c0.1,0,0.1-0.1,0.2-0.1C10.2,27.6,9.7,29.2,8.6,30.4L8.6,30.4z
	 M16.3,25.1c-0.4,0.9-1.1,3.2-1.6,3.1c-0.4-0.1-0.6-1.9-0.1-3.6c0.3-0.9,0.9-1.9,1.3-2.3c0.6-0.6,1.2-0.9,1.4-0.6
	C17.5,22,16.6,24.6,16.3,25.1z M22.7,28.2c-0.2,0.1-0.3,0.1-0.4,0.1c-0.1,0,0.1-0.1,0.1-0.1s0.8-0.9,1.1-1.3
	c0.2-0.2,0.4-0.5,0.6-0.8v0.1C24.2,27.2,23.2,27.9,22.7,28.2L22.7,28.2z M27.6,27c-0.1-0.1-0.1-0.4,0.3-1.2c0.2-0.3,0.5-0.9,1.1-1.4
	c0.1,0.2,0.1,0.4,0.1,0.6C29.1,26.4,28.2,26.8,27.6,27z"/>
</svg>
