<?xml version="1.0" encoding="utf-8"?>
<!-- Generator: Adobe Illustrator 27.4.1, SVG Export Plug-In . SVG Version: 6.00 Build 0)  -->
<svg version="1.1" id="Layer_1" xmlns="http://www.w3.org/2000/svg" xmlns:xlink="http://www.w3.org/1999/xlink" x="0px" y="0px"
	 viewBox="0 0 40 40" style="enable-background:new 0 0 40 40;" xml:space="preserve">
<style type="text/css">
	.st0{fill-rule:evenodd;clip-rule:evenodd;fill:#FFFFFF;filter:url(#Adobe_OpacityMaskFilter);}
	.st1{mask:url(#mask0_00000165210554576759005370000005276640795045748369_);}
	.st2{fill:#0065A9;}
	.st3{fill:#007ACC;}
	.st4{fill:#1F9CF0;}
	.st5{opacity:0.25;}
	.st6{fill-rule:evenodd;clip-rule:evenodd;fill:url(#SVGID_1_);}
</style>
<path d="M36.2,40H3.8C1.7,40,0,38.3,0,36.2V3.8C0,1.7,1.7,0,3.8,0h32.4C38.3,0,40,1.7,40,3.8v32.4C40,38.3,38.3,40,36.2,40z"/>
<defs>
	<filter id="Adobe_OpacityMaskFilter" filterUnits="userSpaceOnUse" x="2.1" y="2.2" width="35.7" height="35.6">
		<feColorMatrix  type="matrix" values="1 0 0 0 0  0 1 0 0 0  0 0 1 0 0  0 0 0 1 0"/>
	</filter>
</defs>
<mask maskUnits="userSpaceOnUse" x="2.1" y="2.2" width="35.7" height="35.6" id="mask0_00000165210554576759005370000005276640795045748369_">
	<path class="st0" d="M27.4,37.6c0.6,0.2,1.2,0.2,1.8-0.1l7.4-3.6c0.7-0.4,1.3-1.2,1.3-2V8c0-0.8-0.5-1.7-1.3-2l-7.4-3.6
		c-0.8-0.2-1.7-0.2-2.3,0.2c-0.1,0.1-0.2,0.1-0.2,0.2L12.6,15.7l-6.1-4.6c-0.6-0.5-1.3-0.4-1.9,0.1l-2,1.8c-0.6,0.6-0.6,1.7,0,2.1
		L7.9,20l-5.3,4.9C2,25.5,2,26.5,2.6,27l2,1.8c0.5,0.5,1.3,0.5,1.9,0.1l6.1-4.6l14,12.8C26.8,37.3,27.1,37.5,27.4,37.6z M28.8,11.9
		L18.1,20l10.7,8.1V11.9z"/>
</mask>
<g class="st1">
	<path class="st2" d="M36.4,6l-7.4-3.6c-0.8-0.4-1.9-0.2-2.5,0.5l-24,22C2,25.5,2,26.5,2.6,27l2,1.8c0.5,0.5,1.3,0.5,1.9,0.1
		l28.9-22c1-0.7,2.4,0,2.4,1.2V8C37.7,7.2,37.3,6.5,36.4,6z"/>
	<g>
		<path class="st3" d="M36.4,34l-7.4,3.6c-0.8,0.4-1.9,0.2-2.5-0.5l-24-22C2,14.5,2,13.5,2.6,13l2-1.8c0.5-0.5,1.3-0.5,1.9-0.1
			l28.9,22c1,0.7,2.4,0,2.4-1.2V32C37.7,32.8,37.3,33.5,36.4,34z"/>
	</g>
	<g>
		<path class="st4" d="M29.2,37.5c-0.8,0.4-1.9,0.2-2.5-0.5c0.8,0.8,2.3,0.2,2.3-1V3.8c0-1.2-1.4-1.8-2.3-1c0.7-0.7,1.7-0.8,2.5-0.5
			L36.6,6c0.7,0.4,1.3,1.2,1.3,2v23.9c0,0.8-0.5,1.7-1.3,2L29.2,37.5z"/>
	</g>
	<g class="st5">
		
			<linearGradient id="SVGID_1_" gradientUnits="userSpaceOnUse" x1="20" y1="262.2608" x2="20" y2="297.697" gradientTransform="matrix(1 0 0 1 0 -260)">
			<stop  offset="0" style="stop-color:#FFFFFF"/>
			<stop  offset="1" style="stop-color:#FFFFFF;stop-opacity:0"/>
		</linearGradient>
		<path class="st6" d="M27.4,37.6c0.6,0.2,1.2,0.2,1.8-0.1l7.4-3.6c0.7-0.4,1.3-1.2,1.3-2V8c0-0.8-0.5-1.7-1.3-2l-7.4-3.6
			c-0.8-0.2-1.7-0.2-2.4,0.2c-0.1,0.1-0.2,0.1-0.2,0.2l-14,12.8l-6.1-4.6c-0.6-0.5-1.3-0.4-1.9,0.1l-2,1.8c-0.6,0.6-0.6,1.7,0,2.1
			L7.9,20l-5.3,4.9C2,25.5,2,26.5,2.6,27l2,1.8c0.5,0.5,1.3,0.5,1.9,0.1l6.1-4.6l14,12.8C26.8,37.3,27.1,37.5,27.4,37.6z M28.8,11.9
			L18.1,20l10.7,8.1V11.9z"/>
	</g>
</g>
</svg>
