<?xml version="1.0" encoding="utf-8"?>
<!-- Generator: Adobe Illustrator 25.4.1, SVG Export Plug-In . SVG Version: 6.00 Build 0)  -->
<svg version="1.1" id="Layer_1" xmlns="http://www.w3.org/2000/svg" xmlns:xlink="http://www.w3.org/1999/xlink" x="0px" y="0px"
	 viewBox="0 0 40 40" style="enable-background:new 0 0 40 40;" xml:space="preserve">
<defs>
	<filter id="Adobe_OpacityMaskFilter" filterUnits="userSpaceOnUse" x="5" y="5.1" width="30" height="29.8">
		<feColorMatrix  type="matrix" values="1 0 0 0 0  0 1 0 0 0  0 0 1 0 0  0 0 0 1 0"/>
	</filter>
</defs>
<mask maskUnits="userSpaceOnUse" x="5" y="5.1" width="30" height="29.8" id="mask0_00000013873102164786206550000007528517961649184901_">
	<path style="fill-rule:evenodd;clip-rule:evenodd;fill:#FFFFFF;filter:url(#Adobe_OpacityMaskFilter);" d="M26.3,34.8
		c0.5,0.2,1,0.2,1.5-0.1l6.2-3c0.6-0.3,1.1-1,1.1-1.7V9.9c0-0.7-0.4-1.4-1.1-1.7l-6.2-3C27.1,5,26.4,5,25.9,5.4
		c-0.1,0.1-0.2,0.1-0.2,0.2L13.8,16.4l-5.1-3.9c-0.5-0.4-1.1-0.3-1.6,0.1l-1.7,1.5c-0.5,0.5-0.5,1.4,0,1.8L9.9,20l-4.5,4.1
		c-0.5,0.5-0.5,1.4,0,1.8l1.7,1.5c0.4,0.4,1.1,0.4,1.6,0.1l5.1-3.9l11.8,10.8C25.8,34.6,26,34.7,26.3,34.8z M27.5,13.2l-9,6.8l9,6.8
		V13.2z"/>
</mask>
<g style="mask:url(#mask0_00000013873102164786206550000007528517961649184901_);">
	<path style="fill:#0065A9;" d="M33.9,8.2l-6.2-3c-0.7-0.3-1.6-0.2-2.1,0.4L5.4,24.1c-0.5,0.5-0.5,1.4,0,1.8l1.7,1.5
		c0.4,0.4,1.1,0.4,1.6,0.1L33,9c0.8-0.6,2,0,2,1V9.9C35,9.2,34.6,8.6,33.9,8.2z"/>
	<g>
		<path style="fill:#007ACC;" d="M33.9,31.8l-6.2,3c-0.7,0.3-1.6,0.2-2.1-0.4L5.4,15.9c-0.5-0.5-0.5-1.4,0-1.8l1.7-1.5
			c0.4-0.4,1.1-0.4,1.6-0.1L33,31c0.8,0.6,2,0,2-1v0.1C35,30.8,34.6,31.4,33.9,31.8z"/>
	</g>
	<g>
		<path style="fill:#1F9CF0;" d="M27.8,34.7c-0.7,0.3-1.6,0.2-2.1-0.4c0.7,0.7,1.9,0.2,1.9-0.8V6.4c0-1-1.2-1.5-1.9-0.8
			c0.6-0.6,1.4-0.7,2.1-0.4l6.2,3c0.6,0.3,1.1,1,1.1,1.7v20.1c0,0.7-0.4,1.4-1.1,1.7L27.8,34.7z"/>
	</g>
	<g style="opacity:0.25;">
		
			<linearGradient id="SVGID_1_" gradientUnits="userSpaceOnUse" x1="19.9909" y1="34.9136" x2="19.9909" y2="5.0864" gradientTransform="matrix(1 0 0 -1 0 40)">
			<stop  offset="0" style="stop-color:#FFFFFF"/>
			<stop  offset="1" style="stop-color:#FFFFFF;stop-opacity:0"/>
		</linearGradient>
		<path style="fill-rule:evenodd;clip-rule:evenodd;fill:url(#SVGID_1_);" d="M26.3,34.8c0.5,0.2,1,0.2,1.5-0.1l6.2-3
			c0.6-0.3,1.1-1,1.1-1.7V9.9c0-0.7-0.4-1.4-1.1-1.7l-6.2-3C27.1,5,26.4,5,25.8,5.4c-0.1,0.1-0.2,0.1-0.2,0.2L13.8,16.4l-5.1-3.9
			c-0.5-0.4-1.1-0.3-1.6,0.1l-1.7,1.5c-0.5,0.5-0.5,1.4,0,1.8L9.9,20l-4.5,4.1c-0.5,0.5-0.5,1.4,0,1.8l1.7,1.5
			c0.4,0.4,1.1,0.4,1.6,0.1l5.1-3.9l11.8,10.8C25.8,34.6,26,34.7,26.3,34.8z M27.5,13.2l-9,6.8l9,6.8V13.2z"/>
	</g>
</g>
</svg>
