<?xml version="1.0" encoding="UTF-8"?>
<svg id="Layer_1" data-name="Layer 1" xmlns="http://www.w3.org/2000/svg" version="1.1" viewBox="0 0 40 40">
  <defs>
    <style>
      .cls-1 {
        fill: #999;
      }

      .cls-1, .cls-2, .cls-3 {
        stroke-width: 0px;
      }

      .cls-2 {
        fill: #101010;
      }

      .cls-3 {
        fill: #fff;
      }
    </style>
  </defs>
  <path class="cls-1" d="M36.2,40H3.8c-2.1,0-3.8-1.7-3.8-3.8V3.8C0,1.7,1.7,0,3.8,0h32.4c2.1,0,3.8,1.7,3.8,3.8v32.4c0,2.1-1.7,3.8-3.8,3.8Z"/>
  <path class="cls-2" d="M24.3,3.6l-4.4,7.6-4.4-7.6H1.1l18.8,32.7L38.7,3.6s-14.4,0-14.4,0Z"/>
  <path class="cls-3" d="M24.3,3.6l-4.4,7.6-4.4-7.6h-6.9l11.3,19.6L31.2,3.6s-6.9,0-6.9,0Z"/>
</svg>